<svg xmlns="http://www.w3.org/2000/svg" width="48.988" height="49" viewBox="0 0 48.988 49">
  <g id="Bank" transform="translate(-3 -2.996)">
    <path id="Path_54706" data-name="Path 54706" d="M13.886,10H8.443V26.329A5.443,5.443,0,0,0,3,31.773v2.722a5.443,5.443,0,0,0,5.443,5.443h38.1a5.443,5.443,0,0,0,5.443-5.443V31.773a5.443,5.443,0,0,0-5.443-5.443V10H41.1V26.329H35.659V10H30.216V26.329H24.773V10H19.329V26.329H13.886Z" transform="translate(0 12.058)" fill="#15bccb" fill-rule="evenodd" opacity="0.25"/>
    <path id="Path_54707" data-name="Path 54707" d="M3,15.045A5.443,5.443,0,0,1,6.661,9.9l19.05-6.6a5.443,5.443,0,0,1,3.565,0L48.328,9.9a5.443,5.443,0,0,1,3.661,5.144v1.57a5.443,5.443,0,0,1-5.443,5.443H8.443A5.443,5.443,0,0,1,3,16.615Z" transform="translate(0 0)" fill="#15bccb"/>
  </g>
</svg>
