<svg xmlns="http://www.w3.org/2000/svg" width="47.928" height="47.928" viewBox="0 0 47.928 47.928">
  <g id="Bank_Card_Off" data-name="Bank Card Off" transform="translate(-2 -2)">
    <g id="Group_379" data-name="Group 379" transform="translate(2 6.793)" opacity="0.25">
      <path id="Path_54708" data-name="Path 54708" d="M31.645,8.85c-.676-.058-1.57-.058-2.952-.058H12.4A2.4,2.4,0,0,1,12.4,4H28.783c1.265,0,2.353,0,3.252.072a7.344,7.344,0,0,1,2.8.712,7.189,7.189,0,0,1,3.142,3.142,7.3,7.3,0,0,1,.709,2.8c.067.805.072,1.764.074,2.864V30.361a2.4,2.4,0,1,1-4.793,0V18.379H24.379a2.4,2.4,0,1,1,0-4.793h9.586c0-1.114-.01-1.876-.058-2.473a2.725,2.725,0,0,0-.2-1.011,2.4,2.4,0,0,0-1.047-1.047A2.74,2.74,0,0,0,31.645,8.85Z" transform="translate(9.171 -4)" fill="#ca83db"/>
      <path id="Path_54709" data-name="Path 54709" d="M5.925,4.583a5.512,5.512,0,0,1,1.21-.439L44.791,41.8a30.356,30.356,0,0,1-6.365.343H13.5c-4.026,0-6.039,0-7.577-.784a7.189,7.189,0,0,1-3.142-3.139C2,36.678,2,34.665,2,30.639V15.3c0-4.026,0-6.039.784-7.577A7.189,7.189,0,0,1,5.925,4.585Z" transform="translate(-2 -3.799)" fill="#ca83db"/>
    </g>
    <path id="Path_54710" data-name="Path 54710" d="M6,16.4A2.4,2.4,0,0,1,8.4,14h9.586a2.4,2.4,0,1,1,0,4.793H8.4A2.4,2.4,0,0,1,6,16.4Z" transform="translate(5.586 16.757)" fill="#ca83db"/>
    <path id="Path_54711" data-name="Path 54711" d="M21.171,12.793,16.379,8H2v4.793Z" transform="translate(0 8.378)" fill="#ca83db"/>
    <path id="Path_54712" data-name="Path 54712" d="M2.7,2.7a2.4,2.4,0,0,1,3.389,0L49.226,45.838a2.4,2.4,0,1,1-3.389,3.389L2.7,6.09A2.4,2.4,0,0,1,2.7,2.7Z" transform="translate(0)" fill="#ca83db" fill-rule="evenodd"/>
  </g>
</svg>
