<svg xmlns="http://www.w3.org/2000/svg" width="2370.5" height="2386.647" viewBox="0 0 2370.5 2386.647">
  <path id="Path_54715" data-name="Path 54715" d="M1435.62,1792.343c-8.077-26.076-46.67-86.863-53.175-96.477-56.872-83.94-132.745-155.011-216.472-211.9-135.682-92.2-280.221-125.8-432.309-174.659-259.91-83.521-556.387-253.51-673.538-513.991C-104.207,429.851,101.75,29.561,277.6,0c0,0-121.463,200.909,24.085,342.665,128.593,125.268,712.63,358.072,739.283,370.276,26.629,12.227,259.8,84.112,437.351,306.744,0,0,241.6,349.3-42.7,772.657" transform="translate(2369.676 1332.513) rotate(138)" fill="none" stroke="#15bccb" stroke-width="1" opacity="0.332"/>
</svg>
