<svg xmlns="http://www.w3.org/2000/svg" width="3115.878" height="2319.168" viewBox="0 0 3115.878 2319.168">
  <g id="Group_4" data-name="Group 4" transform="translate(212.654 218.573)">
    <path id="Path_41" data-name="Path 41" d="M235.244,154.72s219.5,35.041,457.46-68.239C930.643-16.822,926.623,2.226,967.391.2c40.746-2.022,155.1,10.647,70.238,89.96-84.839,79.313-676.217,492.5-736.527,503.575-60.333,11.051-239.444-8.962-283.986-44.7S19.429,158.4,106.133,156.562c86.681-1.842,129.111-1.842,129.111-1.842" transform="translate(1387.559 365.453) rotate(81)" fill="#006081"/>
    <path id="Path_42" data-name="Path 42" d="M1495.717,0c-8.008,27.61-47.643,91.546-54.337,101.651-58.53,88.212-137.5,162.3-225.1,221.111-141.968,95.31-294.6,128-454.9,176.778C487.418,582.927,176.528,757.658,57.852,1032.677c-166.471,385.864,60.677,816.82,247.888,852.11,0,0-133.2-216.69,18.163-364.594,133.733-130.7,748.362-366.161,776.376-378.589,27.989-12.454,273.831-84.019,457.4-317.406,0,0,248.8-366.969-61.965-824.2" transform="translate(2448.448 -22.22) rotate(81)" fill="#15bccb"/>
    <path id="Path_43" data-name="Path 43" d="M821.313,12.627s305.472-89.461,347.966,207.864c42.468,297.351-146.568,443.919-225.141,482.145-78.6,38.226-386.554,231.5-420.538,261.22-33.984,29.743-288.842,220.9-229.382,499.137,0,0-259.125-108.316-290.963-412.055C-15.159,875.429,47.844,764.216,109.45,685.643c61.581-78.6,285.583-269.729,479.429-371.682S905.912,137.676,939.9,93.062c33.959-44.588,30.079-86.8-118.583-80.435" transform="translate(1428.679 473.249) rotate(81)" fill="#15bccb"/>
  </g>
</svg>
