<svg xmlns="http://www.w3.org/2000/svg" width="3101.13" height="3072.432" viewBox="0 0 3101.13 3072.432">
  <path id="Path_54713" data-name="Path 54713" d="M1495.717,1884.786c-8.008-27.611-47.643-91.547-54.337-101.651-58.53-88.212-137.5-162.3-225.1-221.111-141.968-95.31-294.6-128-454.9-176.778C487.418,1301.86,176.529,1127.128,57.852,852.11-108.619,466.245,118.529,35.29,305.739,0c0,0-133.2,216.69,18.163,364.594,133.733,130.7,748.362,366.161,776.376,378.589,27.989,12.454,273.831,84.019,457.4,317.407,0,0,248.8,366.969-61.965,824.2" transform="translate(2803.409 1509.239) rotate(130)" fill="#15bccb" opacity="0.086"/>
</svg>
