<svg xmlns="http://www.w3.org/2000/svg" width="3131.972" height="3227.157" viewBox="0 0 3131.972 3227.157">
  <path id="Path_54714" data-name="Path 54714" d="M1944.383-26.685c-11.073,35.747-63.978,119.076-72.9,132.256-77.964,115.069-181.974,212.5-296.751,290.481-186,126.388-384.142,172.454-592.631,239.432-356.3,114.5-762.723,347.525-923.32,704.6-225.276,501,57.06,1049.737,298.124,1090.26,0,0-166.507-275.416,33.016-469.743,176.282-171.724,976.909-490.864,1013.446-507.593,36.5-16.761,356.151-115.3,599.543-420.5,0,0,331.2-478.833-58.532-1059.2" transform="matrix(0.848, 0.53, -0.53, 0.848, 1307.934, 35.156)" fill="#006081"/>
</svg>
