<svg xmlns="http://www.w3.org/2000/svg" xmlns:xlink="http://www.w3.org/1999/xlink" width="1078" height="937.5" viewBox="0 0 1078 937.5">
  <defs>
    <linearGradient id="linear-gradient" x1="0.541" y1="0.5" x2="0.534" y2="1.24" gradientUnits="objectBoundingBox">
      <stop offset="0" stop-color="#fff"/>
      <stop offset="1" stop-color="#fff" stop-opacity="0"/>
    </linearGradient>
    <filter id="Rectangle_113" x="0" y="0" width="761" height="815.5" filterUnits="userSpaceOnUse">
      <feOffset dy="10" input="SourceAlpha"/>
      <feGaussianBlur stdDeviation="25" result="blur"/>
      <feFlood flood-opacity="0.059"/>
      <feComposite operator="in" in2="blur"/>
      <feComposite in="SourceGraphic"/>
    </filter>
    <linearGradient id="linear-gradient-2" x1="1" x2="0.022" y2="1" gradientUnits="objectBoundingBox">
      <stop offset="0" stop-color="#3e434e"/>
      <stop offset="1" stop-color="#23262b"/>
    </linearGradient>
    <filter id="Fond_darker-huge" x="101" y="92" width="567" height="600" filterUnits="userSpaceOnUse">
      <feOffset dy="4" input="SourceAlpha"/>
      <feGaussianBlur stdDeviation="6" result="blur-2"/>
      <feFlood flood-color="#1a1c1f"/>
      <feComposite operator="in" in2="blur-2"/>
      <feComposite in="SourceGraphic"/>
    </filter>
    <linearGradient id="linear-gradient-3" x1="1" x2="0.038" y2="0.96" gradientUnits="objectBoundingBox">
      <stop offset="0" stop-color="#535966"/>
      <stop offset="1" stop-color="#2e3138"/>
    </linearGradient>
    <filter id="Buttons_cta-small-secondary-rounded" x="231" y="136" width="108" height="65" filterUnits="userSpaceOnUse">
      <feOffset dy="2" input="SourceAlpha"/>
      <feGaussianBlur stdDeviation="4" result="blur-3"/>
      <feFlood flood-color="#1a1c1f" flood-opacity="0.796"/>
      <feComposite operator="in" in2="blur-3"/>
      <feComposite in="SourceGraphic"/>
    </filter>
    <filter id="Line_Copy_2" x="189.8" y="610.728" width="460.487" height="2" filterUnits="userSpaceOnUse">
      <feOffset dy="-1" input="SourceAlpha"/>
      <feGaussianBlur result="blur-4"/>
      <feFlood flood-color="#535966" flood-opacity="0.596"/>
      <feComposite operator="in" in2="blur-4"/>
      <feComposite in="SourceGraphic"/>
    </filter>
    <filter id="Line_Copy_3" x="189.8" y="545.766" width="460.487" height="2" filterUnits="userSpaceOnUse">
      <feOffset dy="-1" input="SourceAlpha"/>
      <feGaussianBlur result="blur-5"/>
      <feFlood flood-color="#535966" flood-opacity="0.596"/>
      <feComposite operator="in" in2="blur-5"/>
      <feComposite in="SourceGraphic"/>
    </filter>
    <filter id="Line_Copy_4" x="189.8" y="482.389" width="460.487" height="2" filterUnits="userSpaceOnUse">
      <feOffset dy="-1" input="SourceAlpha"/>
      <feGaussianBlur result="blur-6"/>
      <feFlood flood-color="#535966" flood-opacity="0.596"/>
      <feComposite operator="in" in2="blur-6"/>
      <feComposite in="SourceGraphic"/>
    </filter>
    <filter id="Line_Copy_5" x="189.8" y="419.011" width="460.487" height="2" filterUnits="userSpaceOnUse">
      <feOffset dy="-1" input="SourceAlpha"/>
      <feGaussianBlur result="blur-7"/>
      <feFlood flood-color="#535966" flood-opacity="0.596"/>
      <feComposite operator="in" in2="blur-7"/>
      <feComposite in="SourceGraphic"/>
    </filter>
    <filter id="Line_Copy_6" x="189.8" y="355.634" width="460.487" height="2" filterUnits="userSpaceOnUse">
      <feOffset dy="-1" input="SourceAlpha"/>
      <feGaussianBlur result="blur-8"/>
      <feFlood flood-color="#535966" flood-opacity="0.596"/>
      <feComposite operator="in" in2="blur-8"/>
      <feComposite in="SourceGraphic"/>
    </filter>
    <linearGradient id="linear-gradient-4" x1="0.518" x2="0.518" y2="1.055" gradientUnits="objectBoundingBox">
      <stop offset="0" stop-color="#ffed5f"/>
      <stop offset="0.682" stop-color="#fec15f" stop-opacity="0.647"/>
      <stop offset="1" stop-color="#2e3138" stop-opacity="0"/>
    </linearGradient>
    <filter id="Value_Copy_10" x="333.575" y="395.459" width="166.37" height="65.783" filterUnits="userSpaceOnUse">
      <feOffset dy="2" input="SourceAlpha"/>
      <feGaussianBlur stdDeviation="4" result="blur-9"/>
      <feFlood flood-color="#1a1c1f" flood-opacity="0.796"/>
      <feComposite operator="in" in2="blur-9"/>
      <feComposite in="SourceGraphic"/>
    </filter>
    <filter id="Rectangle_114" x="513" y="271" width="565" height="666.5" filterUnits="userSpaceOnUse">
      <feOffset dy="10" input="SourceAlpha"/>
      <feGaussianBlur stdDeviation="25" result="blur-10"/>
      <feFlood flood-opacity="0.059"/>
      <feComposite operator="in" in2="blur-10"/>
      <feComposite in="SourceGraphic"/>
    </filter>
    <filter id="Fond_darker-huge-2" x="611" y="385" width="371" height="432" filterUnits="userSpaceOnUse">
      <feOffset dy="4" input="SourceAlpha"/>
      <feGaussianBlur stdDeviation="6" result="blur-11"/>
      <feFlood flood-color="#1a1c1f"/>
      <feComposite operator="in" in2="blur-11"/>
      <feComposite in="SourceGraphic"/>
    </filter>
    <filter id="Line_Copy_5-2" x="628.5" y="710" width="336" height="2" filterUnits="userSpaceOnUse">
      <feOffset dy="-1" input="SourceAlpha"/>
      <feGaussianBlur result="blur-12"/>
      <feFlood flood-color="#535966" flood-opacity="0.596"/>
      <feComposite operator="in" in2="blur-12"/>
      <feComposite in="SourceGraphic"/>
    </filter>
    <filter id="circle-indepth" x="718" y="522" width="158" height="158" filterUnits="userSpaceOnUse">
      <feOffset input="SourceAlpha"/>
      <feGaussianBlur stdDeviation="2" result="blur-13"/>
      <feFlood flood-color="#2e3138"/>
      <feComposite operator="in" in2="blur-13"/>
      <feComposite in="SourceGraphic"/>
    </filter>
    <filter id="progress" x="708.5" y="514.5" width="177" height="177" filterUnits="userSpaceOnUse">
      <feOffset dy="2" input="SourceAlpha"/>
      <feGaussianBlur stdDeviation="4" result="blur-14"/>
      <feFlood flood-color="#1a1c1f"/>
      <feComposite operator="in" in2="blur-14"/>
      <feComposite in="SourceGraphic"/>
    </filter>
    <linearGradient id="linear-gradient-7" x1="0.858" y1="0.858" x2="0.201" y2="0.13" xlink:href="#linear-gradient-3"/>
    <filter id="Oval" x="728" y="532" width="143" height="143" filterUnits="userSpaceOnUse">
      <feOffset dx="2" dy="2" input="SourceAlpha"/>
      <feGaussianBlur stdDeviation="5" result="blur-15"/>
      <feFlood flood-color="#1a1c1f"/>
      <feComposite operator="in" in2="blur-15"/>
      <feComposite in="SourceGraphic"/>
    </filter>
  </defs>
  <g id="Group_416" data-name="Group 416" transform="translate(-710 -1231)">
    <g transform="matrix(1, 0, 0, 1, 710, 1231)" filter="url(#Rectangle_113)">
      <rect id="Rectangle_113-2" data-name="Rectangle 113" width="611" height="665.5" rx="49" transform="translate(75 65)" fill="url(#linear-gradient)"/>
    </g>
    <g id="Fond_darker-huge-3" data-name="Fond / darker-huge" transform="translate(829 1337)">
      <g transform="matrix(1, 0, 0, 1, -119, -106)" filter="url(#Fond_darker-huge)">
        <g id="Fond_darker-huge-4" data-name="Fond / darker-huge" transform="translate(119 106)" stroke="#3e434e" stroke-miterlimit="10" stroke-width="1" fill="url(#linear-gradient-2)">
          <rect width="531" height="564" rx="24" stroke="none"/>
          <rect x="0.5" y="0.5" width="530" height="563" rx="23.5" fill="none"/>
        </g>
      </g>
    </g>
    <g id="Tabs" transform="translate(944.664 1368.689)">
      <g id="Rectangle_Copy_2" data-name="Rectangle Copy 2" transform="translate(0.336 0.311)" fill="#2e3138" stroke="#3e434e" stroke-miterlimit="10" stroke-width="1">
        <rect width="301" height="57" rx="18" stroke="none"/>
        <rect x="0.5" y="0.5" width="300" height="56" rx="17.5" fill="none"/>
      </g>
      <g id="Buttons_cta-small-secondary-dark" data-name="Buttons / cta-small-secondary-dark" transform="translate(8.336 8.311)">
        <g transform="matrix(1, 0, 0, 1, -243, -146)" filter="url(#Buttons_cta-small-secondary-rounded)">
          <g id="Buttons_cta-small-secondary-rounded-2" data-name="Buttons / cta-small-secondary-rounded" transform="translate(243 146)" stroke="#535966" stroke-miterlimit="10" stroke-width="1" fill="url(#linear-gradient-3)">
            <rect width="84" height="41" rx="15" stroke="none"/>
            <rect x="0.5" y="0.5" width="83" height="40" rx="14.5" fill="none"/>
          </g>
        </g>
      </g>
      <text id="Month" transform="translate(270.336 34.311)" fill="#acb5c5" font-size="18" font-family="Helvetica"><tspan x="-50.027" y="0">Month</tspan></text>
      <text id="Week" transform="translate(141.336 35.311)" fill="#acb5c5" font-size="19" font-family="Helvetica"><tspan x="-24.116" y="0">Week</tspan></text>
      <text id="Day" transform="translate(49.481 35.598)" fill="#fff" font-size="19" font-family="Helvetica"><tspan x="-16.894" y="0">Day</tspan></text>
    </g>
    <g id="Borders" transform="translate(900.3 1588.134)">
      <g transform="matrix(1, 0, 0, 1, -190.3, -357.13)" filter="url(#Line_Copy_2)">
        <path id="Line_Copy_2-2" data-name="Line Copy 2" d="M0,.5H459.487" transform="translate(190.3 611.73)" fill="none" stroke="#1a1c1f" stroke-linecap="square" stroke-miterlimit="10" stroke-width="1"/>
      </g>
      <g transform="matrix(1, 0, 0, 1, -190.3, -357.13)" filter="url(#Line_Copy_3)">
        <path id="Line_Copy_3-2" data-name="Line Copy 3" d="M0,.5H459.487" transform="translate(190.3 546.77)" fill="none" stroke="#1a1c1f" stroke-linecap="square" stroke-miterlimit="10" stroke-width="1"/>
      </g>
      <g transform="matrix(1, 0, 0, 1, -190.3, -357.13)" filter="url(#Line_Copy_4)">
        <path id="Line_Copy_4-2" data-name="Line Copy 4" d="M0,.5H459.487" transform="translate(190.3 483.39)" fill="none" stroke="#1a1c1f" stroke-linecap="square" stroke-miterlimit="10" stroke-width="1"/>
      </g>
      <g transform="matrix(1, 0, 0, 1, -190.3, -357.13)" filter="url(#Line_Copy_5)">
        <path id="Line_Copy_5-3" data-name="Line Copy 5" d="M0,.5H459.487" transform="translate(190.3 420.01)" fill="none" stroke="#1a1c1f" stroke-linecap="square" stroke-miterlimit="10" stroke-width="1"/>
      </g>
      <g transform="matrix(1, 0, 0, 1, -190.3, -357.13)" filter="url(#Line_Copy_6)">
        <path id="Line_Copy_6-2" data-name="Line Copy 6" d="M0,.5H459.487" transform="translate(190.3 356.63)" fill="none" stroke="#1a1c1f" stroke-linecap="square" stroke-miterlimit="10" stroke-width="1"/>
      </g>
    </g>
    <path id="Path" d="M0,237.909H1.56v-1.725H3.784l2.278-1.976,3.267,1.85v-1.85l1.958-1.253h2.071l1.678-1.807h1.38v-2.622h2.057l1.784,2.622,2.852-2.036,2.069,1.343,1.658.692h3.7l2.724-1.377,1.468.685,2.053-4.924h4.8l5.548,2.274,3.448.72,3.831,2.622,2.272,1.807H59.91l2.647-3.185,3.115-1.965,2.144,1.307h7.7L79.2,224.7h4.795l2.486-5.22,3.631,1.666,4.962-3.357h6.065l5.09-1.485,6.065,1.485,2.371-1.485,6.571-11.636,3.992-1.056,1.16-3.347,5.26,2.067,4.7-14.3,6.937,2.61,2.144-.756,2.812-6.869h4.389l4.084-10.529h2.834l3.267-3.564L166,161.062l1.767,9.036,3.165,2.39,1.954-3.564,3.131,6.981,1.15,5.631,3.891-5.631h2.092l2.294-5.806,5.033,5.806,1.726-8.247,4.407-8.135h2.442l.834-6.344,2.818,3.765,4.638,1.554,1.675,3.93,6.19,1.583,2.178-10.832,4.357,6.344,5.13-2.579h1.633l1.774-7.6h1.555l1.592-3.089,2.582,4.985,2.354,5.7,6.571,1.554,3.413-16.3,2.16-1.024,1.663-2.266,2.45.86,7.979-8.286,1.619-9.225,3.851-5.806v-5.553l4.814,5.553,2.889-7.993,2.011-14.724,5.252-3.3,4.131-32.914,2.426,15.649,4.385-2.366,2.656,13.353,4.538-10.987,4.758,1.939,2.255,6.439,4.133-5.4,4.451,1.849,2.466-3.761h1.9l3.079-15.282,3.451,1.689,3.654-27.558,2.311-1.641L336.8,4.971,339.341,0l3.177,8.328,2.309,8.834,1.487,12.778L348,33.079V39.8h3.5l3.394-5.161,2.614-12.6L360.922,36v8.52H364.6l1.858-22.483,4.448-13.713.854-1.316,3.589,10.149.883,10.68h3.187l3.34-6.727L385.35,36l5.72,25.737,3.564-2.794,3.27,7.026,4.6-7.026,1.938,9.191,1.99,16.017,2.23-1L412.653,53l4.136-8.475L419,36l2.747,8.52,3.674-3.911,1.948,23.559,4.658-9.13,2.321,15.76,4.727-6.63,7.449,12.938,2.164-14.169,2.75-2.305,3.385-17.5,1.995,19.8,2.671,7.861V268.355H0Z" transform="translate(900.3 1574.666)" fill="url(#linear-gradient-4)"/>
    <g id="Pointer" transform="translate(1111.03 1680.823)">
      <path id="Line" d="M.923,0,.3,126.754" transform="translate(15.713 34.065)" fill="none" stroke="#dbbb5a" stroke-linecap="square" stroke-miterlimit="10" stroke-width="1" opacity="0.3"/>
      <g id="Oval-2" data-name="Oval">
        <circle id="Oval_Copy" data-name="Oval Copy" cx="16.5" cy="16.5" r="16.5" transform="translate(-0.03 0.177)" fill="#fecd5f" opacity="0.3"/>
        <ellipse id="Oval-3" data-name="Oval" cx="12" cy="11.5" rx="12" ry="11.5" transform="translate(4.97 5.177)" fill="#23262b"/>
        <g id="Oval_Copy_2" data-name="Oval Copy 2" transform="translate(10.97 11.177)" fill="#ff6500" stroke="#707070" stroke-miterlimit="10" stroke-width="1">
          <circle cx="5.5" cy="5.5" r="5.5" stroke="none"/>
          <circle cx="5.5" cy="5.5" r="5" fill="none"/>
        </g>
      </g>
    </g>
    <g id="Tooltip" transform="translate(1055.575 1636.459)">
      <g transform="matrix(1, 0, 0, 1, -345.58, -405.46)" filter="url(#Value_Copy_10)">
        <path id="Value_Copy_10-2" data-name="Value Copy 10" d="M0,3.169A3.133,3.133,0,0,1,3.1,0h136.18a3.133,3.133,0,0,1,3.1,3.169V31.017a3.133,3.133,0,0,1-3.1,3.169H82.785a3.056,3.056,0,0,0-2.1.839l-6.274,5.92a3.041,3.041,0,0,1-4.02.153l-7.675-6.226a3.05,3.05,0,0,0-1.922-.685H3.1A3.133,3.133,0,0,1,0,31.017Z" transform="translate(345.58 405.46)" fill="rgba(26,28,31,0.9)"/>
      </g>
      <text id="Mar:_-_7.490_27" data-name="Mar: -$7.490,27" transform="translate(71.425 22.541)" fill="#fff" font-size="17" font-family="Helvetica"><tspan x="-60.006" y="0">Mar: -$7.490,27</tspan></text>
    </g>
    <g id="Hours" transform="translate(895.547 1859.865)">
      <text id="Sat" transform="translate(447.513 12)" fill="#8a93a0" font-size="15" font-family="Helvetica"><tspan x="-11.257" y="0">Sat</tspan></text>
      <text id="Fri" transform="translate(376.453 12.135)" fill="#8a93a0" font-size="16" font-family="Helvetica"><tspan x="-9.328" y="0">Fri</tspan></text>
      <text id="Thu" transform="translate(303.745 12)" fill="#8a93a0" font-size="15" font-family="Helvetica"><tspan x="-12.924" y="0">Thu</tspan></text>
      <text id="Wed" transform="translate(231.453 15.135)" fill="#dbe1ea" font-size="16" font-family="Helvetica"><tspan x="-16.309" y="0">Wed</tspan></text>
      <text id="Tue" transform="translate(158.561 11)" fill="#8a93a0" font-size="14" font-family="Helvetica"><tspan x="-11.806" y="0">Tue</tspan></text>
      <text id="Mon" transform="translate(87.092 12)" fill="#8a93a0" font-size="15" font-family="Helvetica"><tspan x="-14.59" y="0">Mon</tspan></text>
      <text id="Sun" transform="translate(14.453 12.135)" fill="#8a93a0" font-size="16" font-family="Helvetica"><tspan x="-14.234" y="0">Sun</tspan></text>
    </g>
    <text id="_10k_7.5k_5k_2.5k" data-name="$10k $7.5k $5k $2.5k" transform="translate(848 1595)" fill="#acb5c5" font-size="15" font-family="Helvetica"><tspan x="0" y="0">$10k</tspan><tspan x="0" y="59">$7.5k</tspan><tspan x="0" y="118">$5k</tspan><tspan x="0" y="177">$2.5k</tspan><tspan x="0" y="236">$0</tspan></text>
    <text id="_8.311_23" data-name="$8.311,23" transform="translate(1092.341 1535.704)" fill="#fff" font-size="34" font-family="Helvetica"><tspan x="-74.375" y="0">$8.311,23</tspan></text>
    <text id="Working_balance" data-name="Working balance" transform="translate(1094.094 1481.924)" fill="#acb5c5" font-size="19" font-family="Helvetica"><tspan x="-70.591" y="0">Working balance</tspan></text>
    <g transform="matrix(1, 0, 0, 1, 710, 1231)" filter="url(#Rectangle_114)">
      <rect id="Rectangle_114-2" data-name="Rectangle 114" width="415" height="516.5" rx="49" transform="translate(588 336)" fill="url(#linear-gradient)"/>
    </g>
    <g id="Fond_darker-huge-5" data-name="Fond / darker-huge" transform="translate(1339 1630)">
      <g transform="matrix(1, 0, 0, 1, -629, -399)" filter="url(#Fond_darker-huge-2)">
        <g id="Fond_darker-huge-6" data-name="Fond / darker-huge" transform="translate(629 399)" stroke="#3e434e" stroke-miterlimit="10" stroke-width="1" fill="url(#linear-gradient-2)">
          <rect width="335" height="396" rx="24" stroke="none"/>
          <rect x="0.5" y="0.5" width="334" height="395" rx="23.5" fill="none"/>
        </g>
      </g>
    </g>
    <g id="Sum" transform="translate(1339 1942)">
      <text id="_1_000.00_August_20" data-name="$1,000.00 August, 20" transform="translate(319 26.5)" fill="#fff" font-size="14" font-family="Helvetica"><tspan x="-62.282" y="0">$1,000.00</tspan><tspan x="-82.51" y="18">August, 2019</tspan><tspan x="-119.048" y="36">7 months from now</tspan></text>
      <text id="Goal_target:_Due_dat" data-name="Goal target: Due dat" transform="translate(16 24.5)" fill="#8a93a0" font-size="14" font-family="Helvetica"><tspan x="0" y="0">Goal target:</tspan><tspan x="0" y="21">Due date:</tspan><tspan x="0" y="42" xml:space="preserve">Time to go:  </tspan></text>
      <g transform="matrix(1, 0, 0, 1, -629, -711)" filter="url(#Line_Copy_5-2)">
        <path id="Line_Copy_5-4" data-name="Line Copy 5" d="M0,.5H335" transform="translate(629 711)" fill="none" stroke="#1a1c1f" stroke-linecap="square" stroke-miterlimit="10" stroke-width="1"/>
      </g>
    </g>
    <g id="Radial" transform="translate(1434 1759)">
      <g transform="matrix(1, 0, 0, 1, -724, -528)" filter="url(#circle-indepth)">
        <g id="circle-indepth-2" data-name="circle-indepth" transform="translate(724 528)" fill="#23262b" stroke="#3e434e" stroke-miterlimit="10" stroke-width="1">
          <circle cx="73" cy="73" r="73" stroke="none"/>
          <circle cx="73" cy="73" r="72.5" fill="none"/>
        </g>
      </g>
      <g transform="matrix(1, 0, 0, 1, -724, -528)" filter="url(#progress)">
        <circle id="progress-2" data-name="progress" cx="70" cy="70" r="70" transform="translate(727 531)" fill="none" stroke="#fec15f" stroke-linecap="round" stroke-miterlimit="10" stroke-width="13" stroke-dasharray="188.4 9999"/>
      </g>
      <g transform="matrix(1, 0, 0, 1, -724, -528)" filter="url(#Oval)">
        <circle id="Oval-4" data-name="Oval" cx="56.5" cy="56.5" r="56.5" transform="translate(741 545)" fill="url(#linear-gradient-7)"/>
      </g>
      <g id="_0_" data-name="0%" transform="translate(52.244 57.33)">
        <text id="Complete" transform="translate(22 32)" fill="#8a93a0" font-size="10" font-family="Helvetica"><tspan x="-21.399" y="0">Complete</tspan></text>
        <text id="_50_" data-name="50%" transform="translate(0 20)" fill="#fff" font-size="22" font-family="Helvetica"><tspan x="0" y="0">50%</tspan></text>
      </g>
    </g>
    <text id="Goal_details" data-name="Goal details" transform="translate(1355 1662)" fill="#dbe1ea" font-size="14" font-family="Helvetica"><tspan x="0" y="0">Goal details</tspan></text>
    <text id="You_have_0_00_avail" data-name="You have $0,00 avail" transform="translate(1355 1689)" fill="#acb5c5" font-size="12" font-family="Helvetica"><tspan x="0" y="0">You have $0,00 available into travel category. Budget</tspan><tspan x="0" y="17">another $166,00 to reach the goal for the month.</tspan></text>
  </g>
</svg>
