<svg xmlns="http://www.w3.org/2000/svg" width="198" height="39" viewBox="0 0 198 39">
  <g id="Group_19685" data-name="Group 19685" transform="translate(-273 -179)">
    <path id="Rectangle_2995" data-name="Rectangle 2995" d="M6,0h4a6,6,0,0,1,6,6V32.455a3,3,0,0,1-3,3H3a3,3,0,0,1-3-3V6A6,6,0,0,1,6,0Z" transform="translate(273 182.545)" fill="#ff6500"/>
    <path id="Rectangle_2996" data-name="Rectangle 2996" d="M6,0h4a6,6,0,0,1,6,6V27.136a3,3,0,0,1-3,3H3a3,3,0,0,1-3-3V6A6,6,0,0,1,6,0Z" transform="translate(299 187.864)" fill="#ff6500"/>
    <path id="Rectangle_2997" data-name="Rectangle 2997" d="M6,0h4a6,6,0,0,1,6,6V22.7a3,3,0,0,1-3,3H3a3,3,0,0,1-3-3V6A6,6,0,0,1,6,0Z" transform="translate(325 192.295)" fill="#ff6500"/>
    <path id="Rectangle_2998" data-name="Rectangle 2998" d="M6,0h4a6,6,0,0,1,6,6V36a3,3,0,0,1-3,3H3a3,3,0,0,1-3-3V6A6,6,0,0,1,6,0Z" transform="translate(351 179)" fill="#ff6500"/>
    <path id="Rectangle_2999" data-name="Rectangle 2999" d="M6,0h4a6,6,0,0,1,6,6V25.364a3,3,0,0,1-3,3H3a3,3,0,0,1-3-3V6A6,6,0,0,1,6,0Z" transform="translate(377 189.636)" fill="#ff6500"/>
    <path id="Rectangle_3000" data-name="Rectangle 3000" d="M6,0h4a6,6,0,0,1,6,6V28.909a3,3,0,0,1-3,3H3a3,3,0,0,1-3-3V6A6,6,0,0,1,6,0Z" transform="translate(403 186.091)" fill="#ff6500"/>
    <path id="Rectangle_3001" data-name="Rectangle 3001" d="M6,0h4a6,6,0,0,1,6,6V23.591a3,3,0,0,1-3,3H3a3,3,0,0,1-3-3V6A6,6,0,0,1,6,0Z" transform="translate(429 191.409)" fill="#ff6500"/>
    <path id="Rectangle_3002" data-name="Rectangle 3002" d="M6,0h4a6,6,0,0,1,6,6V32.455a3,3,0,0,1-3,3H3a3,3,0,0,1-3-3V6A6,6,0,0,1,6,0Z" transform="translate(455 182.545)" fill="#ff6500"/>
  </g>
</svg>
