<svg xmlns="http://www.w3.org/2000/svg" xmlns:xlink="http://www.w3.org/1999/xlink" width="441.169" height="236.197" viewBox="0 0 441.169 236.197">
  <defs>
    <linearGradient id="linear-gradient" x1="0.5" x2="0.5" y2="0.996" gradientUnits="objectBoundingBox">
      <stop offset="0" stop-color="#928fff"/>
      <stop offset="1" stop-color="#928fff" stop-opacity="0"/>
    </linearGradient>
  </defs>
  <g id="Group_418" data-name="Group 418" transform="translate(-25.815 -35.803)">
    <g id="Group_417" data-name="Group 417">
      <g id="LIne" transform="translate(27.228 36.303)">
        <path id="Item" d="M.5,211.77V0" transform="translate(-0.5 0)" fill="none" stroke="#928fff" stroke-linecap="round" stroke-linejoin="round" stroke-miterlimit="10" stroke-width="1" stroke-dasharray="6" opacity="0.2"/>
        <path id="Item-2" data-name="Item" d="M.5,211.77V0" transform="translate(43.367 0)" fill="none" stroke="#928fff" stroke-linecap="round" stroke-linejoin="round" stroke-miterlimit="10" stroke-width="1" stroke-dasharray="6" opacity="0.2"/>
        <path id="Item-3" data-name="Item" d="M.5,211.77V0" transform="translate(87.233 0)" fill="none" stroke="#928fff" stroke-linecap="round" stroke-linejoin="round" stroke-miterlimit="10" stroke-width="1" stroke-dasharray="6" opacity="0.2"/>
        <path id="Item-4" data-name="Item" d="M.5,211.77V0" transform="translate(131.1 0)" fill="none" stroke="#928fff" stroke-linecap="round" stroke-linejoin="round" stroke-miterlimit="10" stroke-width="1" stroke-dasharray="6" opacity="0.2"/>
        <path id="Item-5" data-name="Item" d="M.5,211.77V0" transform="translate(174.966 0)" fill="none" stroke="#928fff" stroke-linecap="round" stroke-linejoin="round" stroke-miterlimit="10" stroke-width="1" stroke-dasharray="6" opacity="0.2"/>
        <path id="Item-6" data-name="Item" d="M.5,211.77V0" transform="translate(218.833 0)" fill="none" stroke="#928fff" stroke-linecap="round" stroke-linejoin="round" stroke-miterlimit="10" stroke-width="1" stroke-dasharray="6" opacity="0.2"/>
        <path id="Item-7" data-name="Item" d="M.5,211.77V0" transform="translate(262.699 0)" fill="none" stroke="#928fff" stroke-linecap="round" stroke-linejoin="round" stroke-miterlimit="10" stroke-width="1" stroke-dasharray="6" opacity="0.2"/>
        <path id="Item-8" data-name="Item" d="M.5,211.77V0" transform="translate(306.566 0)" fill="none" stroke="#928fff" stroke-linecap="round" stroke-linejoin="round" stroke-miterlimit="10" stroke-width="1" stroke-dasharray="6" opacity="0.2"/>
        <path id="Item-9" data-name="Item" d="M.5,211.77V0" transform="translate(350.433 0)" fill="none" stroke="#928fff" stroke-linecap="round" stroke-linejoin="round" stroke-miterlimit="10" stroke-width="1" stroke-dasharray="6" opacity="0.2"/>
        <path id="Item-10" data-name="Item" d="M.5,211.77V0" transform="translate(394.299 0)" fill="none" stroke="#928fff" stroke-linecap="round" stroke-linejoin="round" stroke-miterlimit="10" stroke-width="1" stroke-dasharray="6" opacity="0.2"/>
        <path id="Item-11" data-name="Item" d="M.5,211.77V0" transform="translate(438.166 0)" fill="none" stroke="#928fff" stroke-linecap="round" stroke-linejoin="round" stroke-miterlimit="10" stroke-width="1" stroke-dasharray="6" opacity="0.2"/>
      </g>
      <g id="Timeframes" transform="translate(27.228 260.174)">
        <g id="Jul">
          <text id="Jul-2" data-name="Jul" transform="translate(-0.228 -0.174)" fill="#6c727f" font-size="12" font-family="Helvetica"><tspan x="-7.67" y="9">Jul</tspan></text>
        </g>
        <g id="Aug" transform="translate(87.733)">
          <text id="Aug-2" data-name="Aug" transform="translate(0.04 -0.174)" fill="#6c727f" font-size="12" font-family="Helvetica"><tspan x="-10.676" y="9">Aug</tspan></text>
        </g>
        <g id="Sep" transform="translate(175.466)">
          <text id="Sep-2" data-name="Sep" transform="translate(0.306 -0.174)" fill="#4a44c6" font-size="12" font-family="Helvetica"><tspan x="-10.676" y="9">Sep</tspan></text>
        </g>
        <g id="Oct" transform="translate(263.199)">
          <text id="Oct-2" data-name="Oct" transform="translate(-0.427 -0.174)" fill="#6c727f" font-size="12" font-family="Helvetica"><tspan x="-9.334" y="9">Oct</tspan></text>
        </g>
        <g id="Nov" transform="translate(350.933)">
          <text id="Nov-2" data-name="Nov" transform="translate(-0.16 -0.174)" fill="#6c727f" font-size="12" font-family="Helvetica"><tspan x="-10.67" y="9">Nov</tspan></text>
        </g>
      </g>
    </g>
    <path id="Path_2" data-name="Path 2" d="M0,170.443l41.405-37.122a6.051,6.051,0,0,1,5.648-1.328l36.74,10.135a6.051,6.051,0,0,0,6.419-2.162L125.9,93.209a6.051,6.051,0,0,1,10.143.814l15.126,28.235a6.051,6.051,0,0,0,8.655,2.2l13.63-8.951a6.051,6.051,0,0,1,4.392-.9l39.089,7.028a6.051,6.051,0,0,1,3.832,2.41l16.941,23.43a6.05,6.05,0,0,0,3.436,2.325l17.132,4.283a6.051,6.051,0,0,0,6.995-3.409l5.639-12.664a6.051,6.051,0,0,1,10.529-.943l17.711,26.024a6.051,6.051,0,0,0,10.914-2.118L338.6,29.813a2.772,2.772,0,0,1,4.669-1.369h0a3.461,3.461,0,0,0,5.62-1.062l6.087-13.95a6.051,6.051,0,0,1,11.507,1.382L370.244,36.4a5.27,5.27,0,0,0,8.92,2.821l.687-.688a6.051,6.051,0,0,1,9.9,2.031l1.976,4.944a5.659,5.659,0,0,0,10.544-.087l6.94-18.236a4.077,4.077,0,0,1,6.711-1.414l2.913,2.95a6.051,6.051,0,0,0,3.728,1.772l16.1,1.543" transform="translate(27.228 50.403)" fill="none" stroke="#928fff" stroke-linecap="round" stroke-linejoin="round" stroke-miterlimit="10" stroke-width="2"/>
    <path id="Path_2-2" data-name="Path 2" d="M.756,170.443l41.405-37.122a6.051,6.051,0,0,1,5.648-1.328l36.74,10.135a6.051,6.051,0,0,0,6.419-2.162l35.684-46.758a6.051,6.051,0,0,1,10.143.814l15.126,28.235a6.051,6.051,0,0,0,8.655,2.2l13.63-8.951a6.051,6.051,0,0,1,4.392-.9l39.089,7.028a6.05,6.05,0,0,1,3.832,2.41l16.941,23.43A6.05,6.05,0,0,0,241.9,149.8l17.132,4.283a6.051,6.051,0,0,0,6.995-3.409l5.639-12.664a6.051,6.051,0,0,1,10.529-.943L299.9,163.092a6.051,6.051,0,0,0,10.914-2.118L339.36,29.813a2.772,2.772,0,0,1,4.669-1.369h0a3.461,3.461,0,0,0,5.62-1.062l6.087-13.95a6.051,6.051,0,0,1,11.507,1.382L371,36.4a5.27,5.27,0,0,0,8.92,2.821l.687-.688a6.051,6.051,0,0,1,9.9,2.031l1.976,4.944a5.659,5.659,0,0,0,10.544-.087l6.94-18.236a4.077,4.077,0,0,1,6.711-1.414l2.913,2.95a6.051,6.051,0,0,0,3.728,1.772l16.1,1.543.756,165.634H0Z" transform="translate(26.471 50.403)" opacity="0.4" fill="url(#linear-gradient)"/>
    <g id="Tooltips" transform="translate(27.228 157.315)">
      <path id="Line-2" data-name="Line" d="M0,.5H438.666" transform="translate(0 14.626)" fill="none" stroke="#928fff" stroke-linecap="round" stroke-linejoin="round" stroke-miterlimit="10" stroke-width="1" stroke-dasharray="8"/>
      <rect id="Base" width="97" height="31" rx="10" transform="translate(170.772 -0.315)" fill="#4a44c6"/>
      <text id="_244.21" data-name="$244.21" transform="translate(182.772 8.685)" fill="#fff" font-size="12" font-family="Helvetica"><tspan x="-21.688" y="9">$244.21</tspan></text>
    </g>
  </g>
</svg>
