<svg xmlns="http://www.w3.org/2000/svg" xmlns:xlink="http://www.w3.org/1999/xlink" width="217.66" height="217.66" viewBox="0 0 217.66 217.66">
  <defs>
    <clipPath id="clip-path">
      <rect id="Rectangle_50" data-name="Rectangle 50" width="217.66" height="217.66" fill="none"/>
    </clipPath>
  </defs>
  <g id="Product_launch" data-name="Product launch" transform="translate(-604.056 -973.804)">
    <g id="Group_197" data-name="Group 197" transform="translate(604.056 973.804)" clip-path="url(#clip-path)">
      <g id="Group_196" data-name="Group 196" transform="translate(6.373 21.605)">
        <g id="Group_185" data-name="Group 185" transform="translate(99.11 34.587)">
          <circle id="Ellipse_65" data-name="Ellipse 65" cx="22.593" cy="22.593" r="22.593" fill="#dae0e8"/>
        </g>
        <g id="Group_186" data-name="Group 186" transform="translate(3.455 74.767)">
          <circle id="Ellipse_66" data-name="Ellipse 66" cx="46.993" cy="46.993" r="46.993" fill="#dae0e8"/>
        </g>
        <path id="Path_301" data-name="Path 301" d="M788.685,1166.979H620.07a8.518,8.518,0,0,1-8.518-8.518v-3.255h73.111a11.817,11.817,0,0,0,9.3,4.528H714.4a11.817,11.817,0,0,0,9.3-4.528h73.5v3.255A8.517,8.517,0,0,1,788.685,1166.979Z" transform="translate(-611.552 -1022.576)" fill="none"/>
        <path id="Path_302" data-name="Path 302" d="M750.649,1166.979H620.07a8.518,8.518,0,0,1-8.518-8.518v-3.255h73.111a11.817,11.817,0,0,0,9.3,4.528H714.4a11.817,11.817,0,0,0,9.3-4.528H762.79" transform="translate(-611.552 -1022.576)" fill="none" stroke="#040505" stroke-linecap="round" stroke-linejoin="round" stroke-width="2" style="isolation: isolate"/>
        <g id="Group_187" data-name="Group 187" transform="translate(61.682)">
          <path id="Path_303" data-name="Path 303" d="M727.186,1092.072l-.8,9.646,2.386.036,3.24-8.074Z" transform="translate(-690.432 -1013.121)" fill="#15bccb"/>
          <path id="Path_304" data-name="Path 304" d="M714.187,1092.072l.8,9.646-2.386.036-3.24-8.074Z" transform="translate(-687.883 -1013.121)" fill="#15bccb"/>
          <path id="Path_305" data-name="Path 305" d="M713.155,1081.688v4.641l-22.706,7.83a4.788,4.788,0,0,1-5.962-2.64h0a4.789,4.789,0,0,1,.436-4.572l18.022-26.6" transform="translate(-684.099 -1008.369)" fill="none" stroke="#040505" stroke-linecap="round" stroke-miterlimit="10" stroke-width="2"/>
          <path id="Path_306" data-name="Path 306" d="M723.185,1081.688v4.641l22.706,7.83a4.789,4.789,0,0,0,5.962-2.64h0a4.789,4.789,0,0,0-.437-4.572l-18.022-26.6" transform="translate(-689.953 -1008.369)" fill="none" stroke="#040505" stroke-linecap="round" stroke-miterlimit="10" stroke-width="2"/>
          <path id="Path_307" data-name="Path 307" d="M733.892,1056.756a187.02,187.02,0,0,0,1.856-27.843c0-16.706-18.561-29.7-18.561-29.7s-18.562,12.993-18.562,29.7a186.948,186.948,0,0,0,1.857,27.843" transform="translate(-686.275 -999.214)" fill="none" stroke="#040505" stroke-linecap="round" stroke-miterlimit="10" stroke-width="2"/>
          <path id="Path_308" data-name="Path 308" d="M708.449,1094.181l2.784,7.425h1.856" transform="translate(-687.746 -1013.437)" fill="#fe9d2d" stroke="#040505" stroke-linecap="round" stroke-miterlimit="10" stroke-width="2"/>
          <path id="Path_309" data-name="Path 309" d="M727.005,1102.178h1.856l3.24-7.27" transform="translate(-690.525 -1013.546)" fill="#15bccb" stroke="#040505" stroke-linecap="round" stroke-miterlimit="10" stroke-width="2"/>
          <circle id="Ellipse_67" data-name="Ellipse 67" cx="7.93" cy="7.93" r="7.93" transform="translate(22.982 19.891)" fill="#15bccb" stroke="#040505" stroke-linecap="round" stroke-miterlimit="10" stroke-width="2"/>
          <circle id="Ellipse_68" data-name="Ellipse 68" cx="4.64" cy="4.64" r="4.64" transform="translate(26.735 50.446)" fill="#fff" stroke="#040505" stroke-linecap="round" stroke-miterlimit="10" stroke-width="2"/>
          <path id="Path_310" data-name="Path 310" d="M723.187,1115.364h-7.425l-1.856-22.274h11.137Z" transform="translate(-688.563 -1013.273)" fill="#15bccb" stroke="#040505" stroke-linecap="round" stroke-miterlimit="10" stroke-width="2"/>
          <line id="Line_288" data-name="Line 288" y2="10.45" transform="translate(31.529 105.879)" fill="none" stroke="#040505" stroke-linecap="round" stroke-miterlimit="10" stroke-width="2"/>
          <line id="Line_289" data-name="Line 289" y2="6.431" transform="translate(18.266 96.635)" fill="none" stroke="#040505" stroke-linecap="round" stroke-miterlimit="10" stroke-width="2"/>
          <line id="Line_290" data-name="Line 290" y2="4.823" transform="translate(43.184 96.635)" fill="none" stroke="#040505" stroke-linecap="round" stroke-miterlimit="10" stroke-width="2"/>
          <line id="Line_291" data-name="Line 291" y2="7.234" transform="translate(43.184 107.888)" fill="none" stroke="#040505" stroke-linecap="round" stroke-miterlimit="10" stroke-width="2"/>
        </g>
        <path id="Path_311" data-name="Path 311" d="M746.825,1045.5h48.45a7.246,7.246,0,0,1,7.246,7.245v60.676" transform="translate(-631.811 -1006.146)" fill="none" stroke="#040505" stroke-linecap="round" stroke-linejoin="round" stroke-width="2"/>
        <path id="Path_312" data-name="Path 312" d="M629.127,1077.194v-24.452a7.245,7.245,0,0,1,7.245-7.245h45.734" transform="translate(-614.184 -1006.146)" fill="none" stroke="#040505" stroke-linecap="round" stroke-linejoin="round" stroke-width="2"/>
        <line id="Line_292" data-name="Line 292" y1="23.546" transform="translate(14.943 109.084)" fill="none" stroke="#040505" stroke-linecap="round" stroke-linejoin="round" stroke-width="2"/>
        <line id="Line_293" data-name="Line 293" x1="54.337" transform="translate(16.301 55.652)" fill="none" stroke="#040505" stroke-linecap="round" stroke-miterlimit="10" stroke-width="2"/>
        <line id="Line_294" data-name="Line 294" x1="28.98" transform="translate(113.202 55.652)" fill="none" stroke="#040505" stroke-linecap="round" stroke-miterlimit="10" stroke-width="2"/>
        <line id="Line_295" data-name="Line 295" x1="21.735" transform="translate(148.521 55.652)" fill="none" stroke="#040505" stroke-linecap="round" stroke-miterlimit="10" stroke-width="2"/>
        <path id="Path_313" data-name="Path 313" d="M650.439,1117.823s15.984-3.365,16.826,10.937c0,0,20.191-15.984,30.287,9.255,0,0,11.778-10.1,24.4,0,0,0,5.889-21.874,28.6-10.1,0,0,5.048-14.3,16.826-10.937,0,0,5.889-17.667,19.35-15.984" transform="translate(-617.376 -1014.441)" fill="none" stroke="#040505" stroke-linecap="round" stroke-linejoin="round" stroke-width="2"/>
        <g id="Group_191" data-name="Group 191" transform="translate(144.199 100.242)">
          <g id="Group_188" data-name="Group 188" transform="translate(0 13)">
            <path id="Path_314" data-name="Path 314" d="M830.8,1150.414a16.693,16.693,0,1,0-33.329-.994,14,14,0,0,1-4.12,10.169l-1.809,1.809,10.3,10.3,1.715-1.715a14.238,14.238,0,0,1,10.3-4.214,16.71,16.71,0,0,0,15.984-10.938" transform="translate(-782.708 -1132.403)" fill="#006081" style="isolation: isolate"/>
            <path id="Path_315" data-name="Path 315" d="M830.8,1150.414a16.693,16.693,0,1,0-33.329-.994,14,14,0,0,1-4.12,10.169l-1.809,1.809,10.3,10.3,1.715-1.715a14.238,14.238,0,0,1,10.3-4.214,16.71,16.71,0,0,0,15.984-10.938" transform="translate(-782.708 -1132.403)" fill="none" stroke="#040505" stroke-linecap="round" stroke-miterlimit="10" stroke-width="2"/>
            <path id="Rectangle_48" data-name="Rectangle 48" d="M0,0H14.6a0,0,0,0,1,0,0V1.9A5.408,5.408,0,0,1,9.191,7.311H5.408A5.408,5.408,0,0,1,0,1.9V0A0,0,0,0,1,0,0Z" transform="translate(5.169 32.623) rotate(45)" fill="none" stroke="#040505" stroke-linecap="round" stroke-miterlimit="10" stroke-width="2"/>
            <path id="Path_316" data-name="Path 316" d="M822.59,1140.6s-5.2-2.313-10.268-.314" transform="translate(-785.82 -1133.462)" fill="none" stroke="#fff" stroke-linecap="round" stroke-miterlimit="10" stroke-width="2"/>
          </g>
          <g id="Group_190" data-name="Group 190" transform="translate(34.698)">
            <line id="Line_296" data-name="Line 296" y1="4.11" x2="4.11" transform="translate(12.836 8.013)" fill="none" stroke="#040505" stroke-linecap="round" stroke-miterlimit="10" stroke-width="2"/>
            <line id="Line_297" data-name="Line 297" x2="6.004" transform="translate(20.013 26.016)" fill="none" stroke="#040505" stroke-linecap="round" stroke-miterlimit="10" stroke-width="2"/>
            <g id="Group_189" data-name="Group 189">
              <line id="Line_298" data-name="Line 298" y1="6.004" fill="none" stroke="#040505" stroke-linecap="round" stroke-miterlimit="10" stroke-width="2"/>
            </g>
          </g>
        </g>
        <g id="Group_192" data-name="Group 192" transform="translate(0.257 76.149)">
          <rect id="Rectangle_49" data-name="Rectangle 49" width="29.19" height="29.19" rx="6" fill="#15bccb" stroke="#040505" stroke-linecap="round" stroke-linejoin="round" stroke-width="2"/>
          <path id="Path_317" data-name="Path 317" d="M622.344,1105.968l3.649,3.649,8.919-8.919" transform="translate(-613.425 -1090.562)" fill="none" stroke="#040505" stroke-linecap="round" stroke-linejoin="round" stroke-width="2"/>
        </g>
        <g id="Group_193" data-name="Group 193" transform="translate(125.991 5.764)">
          <line id="Line_299" data-name="Line 299" x1="2.02" y1="2.02" transform="translate(0 19.769)" fill="none" stroke="#040505" stroke-linecap="round" stroke-miterlimit="10" stroke-width="2"/>
          <line id="Line_300" data-name="Line 300" x1="2.02" y1="2.02" transform="translate(0 9.885)" fill="none" stroke="#040505" stroke-linecap="round" stroke-miterlimit="10" stroke-width="2"/>
          <line id="Line_301" data-name="Line 301" x1="2.02" y1="2.02" fill="none" stroke="#040505" stroke-linecap="round" stroke-miterlimit="10" stroke-width="2"/>
          <line id="Line_302" data-name="Line 302" x1="2.02" y1="2.02" transform="translate(9.885 19.769)" fill="none" stroke="#040505" stroke-linecap="round" stroke-miterlimit="10" stroke-width="2"/>
          <line id="Line_303" data-name="Line 303" x1="2.02" y1="2.02" transform="translate(9.885 9.885)" fill="none" stroke="#040505" stroke-linecap="round" stroke-miterlimit="10" stroke-width="2"/>
          <line id="Line_304" data-name="Line 304" x1="2.02" y1="2.02" transform="translate(9.885)" fill="none" stroke="#040505" stroke-linecap="round" stroke-miterlimit="10" stroke-width="2"/>
          <line id="Line_305" data-name="Line 305" x1="2.02" y1="2.02" transform="translate(20.333 19.769)" fill="none" stroke="#040505" stroke-linecap="round" stroke-miterlimit="10" stroke-width="2"/>
          <line id="Line_306" data-name="Line 306" x1="2.02" y1="2.02" transform="translate(20.333 9.885)" fill="none" stroke="#040505" stroke-linecap="round" stroke-miterlimit="10" stroke-width="2"/>
          <line id="Line_307" data-name="Line 307" x1="2.02" y1="2.02" transform="translate(20.333)" fill="none" stroke="#040505" stroke-linecap="round" stroke-miterlimit="10" stroke-width="2"/>
        </g>
        <g id="Group_194" data-name="Group 194" transform="translate(51.151 12.148)">
          <line id="Line_308" data-name="Line 308" y2="4.519" transform="translate(8.133 11.748)" fill="none" stroke="#040505" stroke-linecap="round" stroke-miterlimit="10" stroke-width="2"/>
          <line id="Line_309" data-name="Line 309" y2="4.519" transform="translate(8.133)" fill="none" stroke="#040505" stroke-linecap="round" stroke-miterlimit="10" stroke-width="2"/>
          <line id="Line_310" data-name="Line 310" x1="4.519" transform="translate(0 8.133)" fill="none" stroke="#040505" stroke-linecap="round" stroke-miterlimit="10" stroke-width="2"/>
          <line id="Line_311" data-name="Line 311" x1="4.519" transform="translate(11.748 8.133)" fill="none" stroke="#040505" stroke-linecap="round" stroke-miterlimit="10" stroke-width="2"/>
        </g>
        <g id="Group_195" data-name="Group 195" transform="translate(49.298 156.867)">
          <line id="Line_312" data-name="Line 312" y2="4.884" transform="translate(8.792 12.699)" fill="none" stroke="#040505" stroke-linecap="round" stroke-miterlimit="10" stroke-width="2"/>
          <line id="Line_313" data-name="Line 313" y2="4.884" transform="translate(8.792)" fill="none" stroke="#040505" stroke-linecap="round" stroke-miterlimit="10" stroke-width="2"/>
          <line id="Line_314" data-name="Line 314" x1="4.884" transform="translate(0 8.792)" fill="none" stroke="#040505" stroke-linecap="round" stroke-miterlimit="10" stroke-width="2"/>
          <line id="Line_315" data-name="Line 315" x1="4.884" transform="translate(12.699 8.792)" fill="none" stroke="#040505" stroke-linecap="round" stroke-miterlimit="10" stroke-width="2"/>
        </g>
      </g>
    </g>
  </g>
</svg>
