<svg xmlns="http://www.w3.org/2000/svg" xmlns:xlink="http://www.w3.org/1999/xlink" width="218" height="218" viewBox="0 0 218 218">
  <defs>
    <clipPath id="clip-path">
      <rect id="Rectangle_106" data-name="Rectangle 106" width="218" height="218" transform="translate(0 0)" fill="none"/>
    </clipPath>
  </defs>
  <g id="Business_growth" data-name="Business growth" transform="translate(0 0)">
    <g id="Group_343" data-name="Group 343" transform="translate(0)" clip-path="url(#clip-path)">
      <g id="Group_342" data-name="Group 342" transform="translate(9 27)">
        <circle id="Ellipse_109" data-name="Ellipse 109" cx="49" cy="49" r="49" transform="translate(16 54)" fill="#dae0e8"/>
        <circle id="Ellipse_110" data-name="Ellipse 110" cx="25" cy="25" r="25" transform="translate(104 21)" fill="#dae0e8"/>
        <rect id="Rectangle_100" data-name="Rectangle 100" width="39" height="39" rx="8" transform="translate(0 6)" fill="#006081" stroke="#040505" stroke-miterlimit="10" stroke-width="2" style="isolation: isolate"/>
        <rect id="Rectangle_101" data-name="Rectangle 101" width="18" height="23" rx="6" transform="translate(72 99)" fill="#15bccb"/>
        <path id="Path_552" data-name="Path 552" d="M348.225,270.982,361.2,258,384,280.8l38.234-38.234" transform="translate(-227.152 -214.255)" fill="none" stroke="#040505" stroke-linecap="round" stroke-linejoin="round" stroke-width="2"/>
        <g id="Group_338" data-name="Group 338" transform="translate(129.943 12.094)">
          <line id="Line_499" data-name="Line 499" y1="1.899" x2="1.899" fill="none" stroke="#040505" stroke-linecap="round" stroke-miterlimit="10" stroke-width="2"/>
          <line id="Line_500" data-name="Line 500" y1="1.899" x2="1.899" transform="translate(9.29)" fill="none" stroke="#040505" stroke-linecap="round" stroke-miterlimit="10" stroke-width="2"/>
          <line id="Line_501" data-name="Line 501" y1="1.899" x2="1.899" transform="translate(18.581)" fill="none" stroke="#040505" stroke-linecap="round" stroke-miterlimit="10" stroke-width="2"/>
          <line id="Line_502" data-name="Line 502" y1="1.899" x2="1.899" transform="translate(0 9.29)" fill="none" stroke="#040505" stroke-linecap="round" stroke-miterlimit="10" stroke-width="2"/>
          <line id="Line_503" data-name="Line 503" y1="1.899" x2="1.899" transform="translate(9.29 9.29)" fill="none" stroke="#040505" stroke-linecap="round" stroke-miterlimit="10" stroke-width="2"/>
          <line id="Line_504" data-name="Line 504" y1="1.899" x2="1.899" transform="translate(18.581 9.29)" fill="none" stroke="#040505" stroke-linecap="round" stroke-miterlimit="10" stroke-width="2"/>
          <line id="Line_505" data-name="Line 505" y1="1.899" x2="1.899" transform="translate(0 19.11)" fill="none" stroke="#040505" stroke-linecap="round" stroke-miterlimit="10" stroke-width="2"/>
          <line id="Line_506" data-name="Line 506" y1="1.899" x2="1.899" transform="translate(9.29 19.11)" fill="none" stroke="#040505" stroke-linecap="round" stroke-miterlimit="10" stroke-width="2"/>
          <line id="Line_507" data-name="Line 507" y1="1.899" x2="1.899" transform="translate(18.581 19.11)" fill="none" stroke="#040505" stroke-linecap="round" stroke-miterlimit="10" stroke-width="2"/>
        </g>
        <g id="Group_339" data-name="Group 339" transform="translate(72)">
          <line id="Line_508" data-name="Line 508" y2="6" transform="translate(10 15)" fill="none" stroke="#040505" stroke-linecap="round" stroke-miterlimit="10" stroke-width="2"/>
          <line id="Line_509" data-name="Line 509" y2="6" transform="translate(10 0)" fill="none" stroke="#040505" stroke-linecap="round" stroke-miterlimit="10" stroke-width="2"/>
          <line id="Line_510" data-name="Line 510" x1="6" transform="translate(0 11)" fill="none" stroke="#040505" stroke-linecap="round" stroke-miterlimit="10" stroke-width="2"/>
          <line id="Line_511" data-name="Line 511" x1="6" transform="translate(14 11)" fill="none" stroke="#040505" stroke-linecap="round" stroke-miterlimit="10" stroke-width="2"/>
        </g>
        <g id="Group_340" data-name="Group 340" transform="translate(52 152)">
          <line id="Line_512" data-name="Line 512" y2="4" transform="translate(6 8)" fill="none" stroke="#040505" stroke-linecap="round" stroke-miterlimit="10" stroke-width="2"/>
          <line id="Line_513" data-name="Line 513" y2="3" transform="translate(6 0)" fill="none" stroke="#040505" stroke-linecap="round" stroke-miterlimit="10" stroke-width="2"/>
          <line id="Line_514" data-name="Line 514" x1="4" transform="translate(0 6)" fill="none" stroke="#040505" stroke-linecap="round" stroke-miterlimit="10" stroke-width="2"/>
          <line id="Line_515" data-name="Line 515" x1="3" transform="translate(9 6)" fill="none" stroke="#040505" stroke-linecap="round" stroke-miterlimit="10" stroke-width="2"/>
        </g>
        <rect id="Rectangle_102" data-name="Rectangle 102" width="11.662" height="11.662" rx="5.304" transform="translate(16.155 66.706) rotate(45)" fill="none" stroke="#040505" stroke-linecap="round" stroke-miterlimit="10" stroke-width="2"/>
        <g id="Group_3207" data-name="Group 3207" transform="translate(33.749 37.833)">
          <path id="Path_78205" data-name="Path 78205" d="M273.21,273.312v-5.756a7.02,7.02,0,0,1,7.055-6.984h36.853a7.02,7.02,0,0,1,7.055,6.984v5.756h6.795v-5.7a13.934,13.934,0,0,0-14-13.835H280.414a13.933,13.933,0,0,0-14,13.835v5.7Z" transform="translate(-248.578 -253.776)" fill="#15bccb" stroke="#040505" stroke-linecap="round" stroke-linejoin="round" stroke-width="2" style="isolation: isolate"/>
          <path id="Path_78206" data-name="Path 78206" d="M257.415,336.776v20.966a7.024,7.024,0,0,0,6.984,7.063h59.267" transform="translate(-247.222 -266.278)" fill="none" stroke="#040505" stroke-linecap="round" stroke-linejoin="round" stroke-width="2" style="isolation: isolate"/>
          <path id="Path_78206-2" data-name="Path 78206" d="M311.4,337.695v5.213a4.191,4.191,0,0,1-4.192,4.192h-8.6a4.191,4.191,0,0,1-4.192-4.192v-5.266" transform="translate(-252.796 -266.408)" fill="none" stroke="#040505" stroke-linecap="round" stroke-linejoin="round" stroke-width="2" style="isolation: isolate"/>
          <path id="Path_78206-3" data-name="Path 78206" d="M351.415,346.969V336.776" transform="translate(-261.381 -266.278)" fill="none" stroke="#040505" stroke-linecap="round" stroke-linejoin="round" stroke-width="2" style="isolation: isolate"/>
          <path id="Path_78207" data-name="Path 78207" d="M338.738,276.776H252.327a6.955,6.955,0,0,0-6.912,7v35.939a6.967,6.967,0,0,0,6.006,6.943,332.4,332.4,0,0,0,35.613,2.721v-8.518A4.163,4.163,0,0,1,291.2,316.7h8.633a4.191,4.191,0,0,1,4.192,4.192v8.437c15.139-.43,28.286-1.818,35.564-2.727a6.966,6.966,0,0,0,6.055-6.949V283.785a6.956,6.956,0,0,0-6.9-7.009Z" transform="translate(-245.415 -257.24)" fill="none" stroke="#040505" stroke-linecap="round" stroke-linejoin="round" stroke-width="2" style="isolation: isolate"/>
        </g>
        <path id="Path_78207-2" data-name="Path 78207" d="M251.415,303.776v15.74a6.21,6.21,0,0,0,5.441,6.169c1.387.171,3.011.361,4.839.559" transform="translate(-212.57 -223.475)" fill="none" stroke="#040505" stroke-linecap="round" stroke-linejoin="round" stroke-width="2" style="isolation: isolate"/>
        <path id="Path_78207-3" data-name="Path 78207" d="M251.415,289.776v6.795" transform="translate(-212.57 -221.366)" fill="none" stroke="#040505" stroke-linecap="round" stroke-linejoin="round" stroke-width="2" style="isolation: isolate"/>
        <line id="Line_516" data-name="Line 516" y1="18.503" x2="18.503" transform="translate(25.473 117.604)" fill="none" stroke="#040505" stroke-linecap="round" stroke-linejoin="round" stroke-width="2"/>
        <g id="Group_341" data-name="Group 341" transform="translate(15.598 15)">
          <path id="Path_553" data-name="Path 553" d="M227.753,237.456a3.707,3.707,0,1,1,3.708-3.708" transform="translate(-224.045 -227.368)" fill="none" stroke="#fff" stroke-linecap="round" stroke-linejoin="round" stroke-width="2"/>
          <path id="Path_554" data-name="Path 554" d="M227.753,238.771a3.707,3.707,0,1,1-3.708,3.708" transform="translate(-224.045 -228.683)" fill="none" stroke="#fff" stroke-linecap="round" stroke-linejoin="round" stroke-width="2"/>
          <line id="Line_517" data-name="Line 517" y2="2" transform="translate(3.402 18)" fill="none" stroke="#fff" stroke-linecap="round" stroke-linejoin="round" stroke-width="2"/>
          <line id="Line_518" data-name="Line 518" y2="2" transform="translate(3.402 0)" fill="none" stroke="#fff" stroke-linecap="round" stroke-linejoin="round" stroke-width="2"/>
        </g>
        <path id="Path_555" data-name="Path 555" d="M431.415,236.776h8.494v8.494" transform="translate(-239.683 -213.383)" fill="none" stroke="#040505" stroke-linecap="round" stroke-linejoin="round" stroke-width="2"/>
        <rect id="Rectangle_103" data-name="Rectangle 103" width="16" height="39" rx="4" transform="translate(141 105)" fill="#006081" stroke="#040505" stroke-miterlimit="10" stroke-width="2" style="isolation: isolate"/>
        <rect id="Rectangle_104" data-name="Rectangle 104" width="16" height="20" rx="4" transform="translate(117 124)" fill="#006081" stroke="#040505" stroke-miterlimit="10" stroke-width="2" style="isolation: isolate"/>
        <rect id="Rectangle_105" data-name="Rectangle 105" width="16" height="63" rx="4" transform="translate(165 81)" fill="#15bccb" stroke="#040505" stroke-linecap="round" stroke-linejoin="round" stroke-width="2" style="isolation: isolate"/>
      </g>
    </g>
  </g>
</svg>
