<svg xmlns="http://www.w3.org/2000/svg" xmlns:xlink="http://www.w3.org/1999/xlink" width="212" height="212" viewBox="0 0 212 212">
  <defs>
    <clipPath id="clip-path">
      <rect id="Rectangle_83" data-name="Rectangle 83" width="212" height="212" fill="none"/>
    </clipPath>
  </defs>
  <g id="Webinar" transform="translate(-195.415 -599.032)">
    <g id="Group_290" data-name="Group 290" transform="translate(195.415 599.032)" clip-path="url(#clip-path)">
      <g id="Group_289" data-name="Group 289" transform="translate(9.519 21.725)">
        <g id="Group_272" data-name="Group 272" transform="translate(0.818 78.657)">
          <circle id="Ellipse_91" data-name="Ellipse 91" cx="43.063" cy="43.063" r="43.063" fill="#dae0e8"/>
        </g>
        <g id="Group_273" data-name="Group 273" transform="translate(129.213 9.135)">
          <circle id="Ellipse_92" data-name="Ellipse 92" cx="20.703" cy="20.703" r="20.703" fill="#dae0e8"/>
        </g>
        <rect id="Rectangle_77" data-name="Rectangle 77" width="14.235" height="14.235" rx="5.304" transform="matrix(0.707, 0.707, -0.707, 0.707, 134.731, 150.247)" fill="none" stroke="#040505" stroke-linecap="round" stroke-miterlimit="10" stroke-width="2"/>
        <g id="Group_274" data-name="Group 274" transform="translate(36.674 18.262)">
          <line id="Line_411" data-name="Line 411" y1="1.85" x2="1.852" transform="translate(0.007)" fill="none" stroke="#040505" stroke-linecap="round" stroke-miterlimit="10" stroke-width="2"/>
          <line id="Line_412" data-name="Line 412" y1="1.85" x2="1.852" transform="translate(9.065 0.003)" fill="none" stroke="#040505" stroke-linecap="round" stroke-miterlimit="10" stroke-width="2"/>
          <line id="Line_413" data-name="Line 413" y1="1.85" x2="1.852" transform="translate(18.123 0.007)" fill="none" stroke="#040505" stroke-linecap="round" stroke-miterlimit="10" stroke-width="2"/>
          <line id="Line_414" data-name="Line 414" y1="1.85" x2="1.852" transform="translate(0.004 9.058)" fill="none" stroke="#040505" stroke-linecap="round" stroke-miterlimit="10" stroke-width="2"/>
          <line id="Line_415" data-name="Line 415" y1="1.85" x2="1.852" transform="translate(9.062 9.062)" fill="none" stroke="#040505" stroke-linecap="round" stroke-miterlimit="10" stroke-width="2"/>
          <line id="Line_416" data-name="Line 416" y1="1.85" x2="1.852" transform="translate(18.12 9.065)" fill="none" stroke="#040505" stroke-linecap="round" stroke-miterlimit="10" stroke-width="2"/>
          <line id="Line_417" data-name="Line 417" y1="1.85" x2="1.852" transform="translate(0 18.632)" fill="none" stroke="#040505" stroke-linecap="round" stroke-miterlimit="10" stroke-width="2"/>
          <line id="Line_418" data-name="Line 418" y1="1.85" x2="1.852" transform="translate(9.058 18.635)" fill="none" stroke="#040505" stroke-linecap="round" stroke-miterlimit="10" stroke-width="2"/>
          <line id="Line_419" data-name="Line 419" y1="1.85" x2="1.852" transform="translate(18.116 18.639)" fill="none" stroke="#040505" stroke-linecap="round" stroke-miterlimit="10" stroke-width="2"/>
        </g>
        <g id="Group_275" data-name="Group 275" transform="translate(173.077 91.131)">
          <line id="Line_420" data-name="Line 420" x1="0.002" y2="4.141" transform="translate(7.45 10.766)" fill="none" stroke="#040505" stroke-linecap="round" stroke-miterlimit="10" stroke-width="2"/>
          <line id="Line_421" data-name="Line 421" x1="0.002" y2="4.141" transform="translate(7.454)" fill="none" stroke="#040505" stroke-linecap="round" stroke-miterlimit="10" stroke-width="2"/>
          <line id="Line_422" data-name="Line 422" x1="4.141" y1="0.002" transform="translate(0 7.45)" fill="none" stroke="#040505" stroke-linecap="round" stroke-miterlimit="10" stroke-width="2"/>
          <line id="Line_423" data-name="Line 423" x1="4.141" y1="0.002" transform="translate(10.766 7.454)" fill="none" stroke="#040505" stroke-linecap="round" stroke-miterlimit="10" stroke-width="2"/>
        </g>
        <rect id="Rectangle_78" data-name="Rectangle 78" width="8.196" height="8.196" rx="4.098" transform="matrix(-0.707, 0.707, -0.707, -0.707, 11.97, 56.751)" fill="#dae0e8" stroke="#040505" stroke-linecap="round" stroke-miterlimit="10" stroke-width="2"/>
        <g id="Group_276" data-name="Group 276" transform="translate(8.265 48.838)">
          <line id="Line_424" data-name="Line 424" x1="0.022" y2="57.141" transform="translate(155.689 28.209)" fill="none" stroke="#040505" stroke-linecap="round" stroke-linejoin="round" stroke-width="2" style="isolation: isolate"/>
          <line id="Line_425" data-name="Line 425" x2="27.328" y2="0.011" transform="translate(94.441 0.029)" fill="none" stroke="#040505" stroke-linecap="round" stroke-linejoin="round" stroke-width="2" style="isolation: isolate"/>
          <path id="Path_453" data-name="Path 453" d="M232.922,705.769l.006-15.04a6.49,6.49,0,0,1,6.492-6.488l26.635.011" transform="translate(-219.645 -684.24)" fill="none" stroke="#040505" stroke-linecap="round" stroke-linejoin="round" stroke-width="2" style="isolation: isolate"/>
          <line id="Line_426" data-name="Line 426" y1="30.641" x2="0.012" transform="translate(13.251 54.654)" fill="none" stroke="#040505" stroke-linecap="round" stroke-linejoin="round" stroke-width="2" style="isolation: isolate"/>
          <path id="Path_454" data-name="Path 454" d="M378.864,798.059,224.676,798a7.79,7.79,0,0,1-7.786-7.793l0-2.976,66.854.026h0a10.808,10.808,0,0,0,8.5,4.144l18.687.007a10.81,10.81,0,0,0,8.508-4.137h.216l67,.026,0,2.977A7.788,7.788,0,0,1,378.864,798.059Z" transform="translate(-216.89 -701.942)" fill="none" stroke="#040505" stroke-linecap="round" stroke-linejoin="round" stroke-width="2" style="isolation: isolate"/>
        </g>
        <g id="Group_277" data-name="Group 277" transform="translate(77.872)">
          <path id="Path_455" data-name="Path 455" d="M325.8,625.273l-19.047-.008a5.8,5.8,0,0,0-5.8,5.794l-.007,15.734a5.8,5.8,0,0,0,5.8,5.8l31.469.012a5.8,5.8,0,0,0,5.8-5.8l.007-15.734a5.8,5.8,0,0,0-5.8-5.8l-4.969,0" transform="translate(-300.944 -625.266)" fill="none" stroke="#040505" stroke-linecap="round" stroke-linejoin="round" stroke-width="2"/>
          <path id="Path_456" data-name="Path 456" d="M323.35,634.475l8.328,4.873a1.6,1.6,0,0,1,0,2.754l-8.331,4.866a1.6,1.6,0,0,1-2.4-1.378l0-9.739A1.6,1.6,0,0,1,323.35,634.475Z" transform="translate(-304.382 -626.811)" fill="none" stroke="#040505" stroke-linecap="round" stroke-linejoin="round" stroke-width="2"/>
        </g>
        <path id="Path_457" data-name="Path 457" d="M250.594,787.7" transform="translate(-214.418 -653.185)" fill="none" stroke="#040505" stroke-linecap="round" stroke-linejoin="round" stroke-width="2"/>
        <g id="Group_278" data-name="Group 278" transform="translate(125.873 82.83)">
          <line id="Line_427" data-name="Line 427" x2="16.562" y2="0.006" transform="translate(10.771 3.315)" fill="none" stroke="#040505" stroke-linecap="round" stroke-linejoin="round" stroke-width="2"/>
          <line id="Line_428" data-name="Line 428" x2="11.594" y2="0.004" transform="translate(10.766 16.565)" fill="none" stroke="#040505" stroke-linecap="round" stroke-linejoin="round" stroke-width="2"/>
          <rect id="Rectangle_79" data-name="Rectangle 79" width="6.625" height="6.625" rx="2" transform="translate(0.005)" fill="none" stroke="#040505" stroke-linecap="round" stroke-linejoin="round" stroke-width="2"/>
          <rect id="Rectangle_80" data-name="Rectangle 80" width="6.625" height="6.625" rx="2" transform="translate(0 13.25)" fill="none" stroke="#040505" stroke-linecap="round" stroke-linejoin="round" stroke-width="2"/>
          <line id="Line_429" data-name="Line 429" x2="6.625" y2="0.003" transform="translate(10.761 28.987)" fill="none" stroke="#040505" stroke-linecap="round" stroke-linejoin="round" stroke-width="2"/>
        </g>
        <g id="Group_284" data-name="Group 284" transform="translate(26.485 36.453)">
          <g id="Group_282" data-name="Group 282">
            <g id="Group_281" data-name="Group 281">
              <path id="Path_458" data-name="Path 458" d="M313.424,697.278s5.587-8.374,2.8-15.82c-2.791-4.655-3.722-3.725-3.722-3.725s-3.719-9.308-17.68-8.383-17.689,13.954-17.69,18.607l1.862-.93s-2.793,3.722,0,9.307c0,0,3.726-8.375,7.449-8.373l-.932,3.722s13.03.936,20.478-6.507l-2.793,4.652s5.584-.928,7.447-3.72A16.845,16.845,0,0,0,313.424,697.278Z" transform="translate(-245.464 -669.285)" fill="#15bccb"/>
              <g id="Group_280" data-name="Group 280" transform="translate(0 0.334)">
                <g id="Group_279" data-name="Group 279" transform="translate(0 51.65)">
                  <path id="Path_459" data-name="Path 459" d="M274.663,745.527a41.9,41.9,0,0,1-10.443,3.832c-14.076,2.85-19.7,6.1-21.534,10.677-1.6,3.984-2.869,12.274-3.794,18.9" transform="translate(-238.892 -734.373)" fill="none" stroke="#040505" stroke-linecap="round" stroke-linejoin="round" stroke-width="2"/>
                  <path id="Path_460" data-name="Path 460" d="M319.3,745.542a41.917,41.917,0,0,0,10.44,3.839c14.074,2.861,19.7,6.12,21.526,10.694,1.4,3.516,2.968,12.448,4.136,19.993" transform="translate(-252.712 -734.376)" fill="none" stroke="#040505" stroke-linecap="round" stroke-linejoin="round" stroke-width="2"/>
                  <path id="Path_461" data-name="Path 461" d="M282.087,743.212c4.816-1.924,4.052-8.563,3.689-11.154" transform="translate(-246.316 -732.058)" fill="none" stroke="#040505" stroke-linecap="round" stroke-linejoin="round" stroke-width="2"/>
                  <path id="Path_462" data-name="Path 462" d="M314.567,733.088c-.251,2.505-.928,8.386,3.886,10.313" transform="translate(-251.867 -732.235)" fill="none" stroke="#040505" stroke-linecap="round" stroke-linejoin="round" stroke-width="2"/>
                </g>
                <path id="Path_463" data-name="Path 463" d="M300.033,740.239" transform="translate(-249.401 -681.814)" fill="none" stroke="#040505" stroke-linecap="round" stroke-linejoin="round" stroke-width="2"/>
                <path id="Path_464" data-name="Path 464" d="M302.044,670.4c10.971,2.318,10.241,7.616,10.241,7.616a6.676,6.676,0,0,1,4.424,7.037c-.263,5.683-.142,8.444-2.417,11.121-1.233.822-1.132.856-1.132.856S309.8,691.309,311.1,685.9a6.884,6.884,0,0,1-7.672,4.354s2.889-2.888,2.89-4.814c0,0-10.887,8.449-21.188,6.733,0,0,2.89-2.888,2.891-4.814,0,0-6.742.961-9.065,8.8-.568-.141-1.646-5.567,0-9.419-.824,0-1.649,1.284-1.649,1.284s.415-7.278,4.537-11.558a19.549,19.549,0,0,1,7.831-5.352" transform="translate(-245.496 -669.811)" fill="none" stroke="#040505" stroke-linecap="round" stroke-linejoin="round" stroke-width="2"/>
                <path id="Path_465" data-name="Path 465" d="M295.733,670.141a21.01,21.01,0,0,1,7.005-.286" transform="translate(-248.662 -669.688)" fill="none" stroke="#040505" stroke-linecap="round" stroke-linejoin="round" stroke-width="2"/>
                <path id="Path_466" data-name="Path 466" d="M280.046,701.7c-2.35.215-3.9,2.937-3.611,6.093.234,2.556,1.6,4.614,3.364,5.188.865,11.465,8.752,20.352,16.636,20.355,8.377,0,15.7-8.921,16.646-20.423,1.661-.662,2.936-2.649,3.163-5.1.292-3.157-1.256-5.88-3.606-6.1" transform="translate(-245.339 -675.19)" fill="none" stroke="#040505" stroke-linecap="round" stroke-linejoin="round" stroke-width="2"/>
              </g>
            </g>
            <line id="Line_430" data-name="Line 430" y1="6.625" x2="0.003" transform="translate(21.531 90.236)" fill="none" stroke="#040505" stroke-linecap="round" stroke-linejoin="round" stroke-width="2"/>
            <line id="Line_431" data-name="Line 431" y1="8.281" x2="0.003" transform="translate(81.155 91.916)" fill="none" stroke="#040505" stroke-linecap="round" stroke-linejoin="round" stroke-width="2"/>
            <path id="Path_467" data-name="Path 467" d="M312.9,745.539l-15.273,15.542-15.542-15.554" transform="translate(-246.316 -682.389)" fill="none" stroke="#040505" stroke-linecap="round" stroke-linejoin="round" stroke-width="2"/>
          </g>
          <g id="Group_283" data-name="Group 283" transform="translate(38.119 28.964)">
            <rect id="Rectangle_81" data-name="Rectangle 81" width="11.594" height="8.281" rx="3.699" transform="translate(14.078 0.005)" fill="none" stroke="#040505" stroke-linecap="round" stroke-linejoin="round" stroke-width="2"/>
            <rect id="Rectangle_82" data-name="Rectangle 82" width="11.594" height="8.281" rx="3.699" fill="none" stroke="#040505" stroke-linecap="round" stroke-linejoin="round" stroke-width="2"/>
            <line id="Line_432" data-name="Line 432" x2="2.484" y2="0.001" transform="translate(11.594 2.487)" fill="none" stroke="#040505" stroke-linecap="round" stroke-linejoin="round" stroke-width="2"/>
          </g>
          <line id="Line_433" data-name="Line 433" y1="3.701" x2="4.696" transform="translate(63.861 26.375)" fill="#fff" stroke="#040505" stroke-linecap="round" stroke-linejoin="round" stroke-width="2"/>
          <line id="Line_434" data-name="Line 434" x1="4.456" y1="3.217" transform="translate(34.286 26.499)" fill="#fff" stroke="#040505" stroke-linecap="round" stroke-linejoin="round" stroke-width="2"/>
        </g>
        <g id="Group_286" data-name="Group 286" transform="translate(133.34 33.976)">
          <path id="Path_468" data-name="Path 468" d="M374.936,705.215l23.723.009,13.15,7.9,0-7.891,8.72,0a7.015,7.015,0,0,0,7.018-7.012l.009-24.893a7.015,7.015,0,0,0-7.012-7.018l-45.6-.017a7.015,7.015,0,0,0-7.018,7.012l-.009,24.893A7.015,7.015,0,0,0,374.936,705.215Z" transform="translate(-367.924 -666.293)" fill="#15bccb"/>
          <path id="Path_469" data-name="Path 469" d="M427.558,673.328a7.015,7.015,0,0,0-7.012-7.018l-45.6-.017a7.015,7.015,0,0,0-7.018,7.012l-.009,24.893a7.015,7.015,0,0,0,7.012,7.018l23.764.009,13.109,7.9,0-7.891,8.72,0a7.015,7.015,0,0,0,7.018-7.012v-3.751" transform="translate(-367.924 -666.293)" fill="none" stroke="#040505" stroke-linecap="round" stroke-linejoin="round" stroke-width="2"/>
          <line id="Line_435" data-name="Line 435" y1="11.594" x2="0.004" transform="translate(59.627 13.27)" fill="none" stroke="#040505" stroke-linecap="round" stroke-linejoin="round" stroke-width="2"/>
          <g id="Group_285" data-name="Group 285" transform="translate(14.083 15.738)">
            <circle id="Ellipse_93" data-name="Ellipse 93" cx="3.313" cy="3.313" r="3.313" fill="none" stroke="#040505" stroke-linecap="round" stroke-linejoin="round" stroke-width="2"/>
            <circle id="Ellipse_94" data-name="Ellipse 94" cx="3.313" cy="3.313" r="3.313" transform="translate(12.422 0.005)" fill="none" stroke="#040505" stroke-linecap="round" stroke-linejoin="round" stroke-width="2"/>
            <circle id="Ellipse_95" data-name="Ellipse 95" cx="3.313" cy="3.313" r="3.313" transform="translate(24.844 0.01)" fill="none" stroke="#040505" stroke-linecap="round" stroke-linejoin="round" stroke-width="2"/>
          </g>
        </g>
        <g id="Group_288" data-name="Group 288" transform="translate(0 74.501)">
          <path id="Path_470" data-name="Path 470" d="M206.914,725.165l0-5.375a4.563,4.563,0,0,1,4.565-4.56l29.8.012a4.562,4.562,0,0,1,4.56,4.565l-.006,15.719a4.562,4.562,0,0,1-4.564,4.56l-16.141-.006-8.283,5.129,0-5.133-5.375,0a4.563,4.563,0,0,1-4.56-4.564l0-3.719" transform="translate(-206.91 -715.229)" fill="#006081" stroke="#040505" stroke-linecap="round" stroke-linejoin="round" stroke-width="2"/>
          <g id="Group_287" data-name="Group 287" transform="translate(9.113 9.94)">
            <circle id="Ellipse_96" data-name="Ellipse 96" cx="2.07" cy="2.07" r="2.07" transform="translate(15.734 0.006)" fill="none" stroke="#fff" stroke-linecap="round" stroke-linejoin="round" stroke-width="2"/>
            <circle id="Ellipse_97" data-name="Ellipse 97" cx="2.07" cy="2.07" r="2.07" transform="translate(8.281 0.003)" fill="none" stroke="#fff" stroke-linecap="round" stroke-linejoin="round" stroke-width="2"/>
            <circle id="Ellipse_98" data-name="Ellipse 98" cx="2.07" cy="2.07" r="2.07" fill="none" stroke="#fff" stroke-linecap="round" stroke-linejoin="round" stroke-width="2"/>
          </g>
        </g>
      </g>
    </g>
  </g>
</svg>
