<svg xmlns="http://www.w3.org/2000/svg" width="20" height="20" viewBox="0 0 20 20">
  <g id="Icons_24_more-vertical-outline" data-name="Icons 24/more-vertical-outline" transform="translate(0 20) rotate(-90)">
    <g id="Layer_2" data-name="Layer 2">
      <g id="more-vertical">
        <path id="Vector" d="M0,0H20V20H0Z" transform="translate(0 20) rotate(-90)" fill="#a4abb6" opacity="0"/>
        <path id="Vector-2" data-name="Vector" d="M3.333,1.667A1.667,1.667,0,1,1,1.667,0,1.667,1.667,0,0,1,3.333,1.667Z" transform="translate(8.333 8.332)" fill="#a4abb6"/>
        <path id="Vector-3" data-name="Vector" d="M3.333,1.667A1.667,1.667,0,1,1,1.667,0,1.667,1.667,0,0,1,3.333,1.667Z" transform="translate(8.333 2.5)" fill="#a4abb6"/>
        <path id="Vector-4" data-name="Vector" d="M3.333,1.667A1.667,1.667,0,1,1,1.667,0,1.667,1.667,0,0,1,3.333,1.667Z" transform="translate(8.333 14.168)" fill="#a4abb6"/>
      </g>
    </g>
  </g>
</svg>
