<svg xmlns="http://www.w3.org/2000/svg" width="44.8" height="56" viewBox="0 0 44.8 56">
  <g id="Shopping_List" data-name="Shopping List" transform="translate(-4 -2)">
    <path id="Path_54703" data-name="Path 54703" d="M4,16.44c0-4.7,0-7.056.916-8.854A8.4,8.4,0,0,1,8.586,3.916C10.384,3,12.736,3,17.44,3H35.36c4.7,0,7.056,0,8.854.916a8.4,8.4,0,0,1,3.671,3.671c.916,1.8.916,4.15.916,8.854V42.76c0,4.7,0,7.056-.916,8.854a8.4,8.4,0,0,1-3.671,3.671c-1.8.916-4.15.916-8.854.916H17.44c-4.7,0-7.056,0-8.854-.916a8.4,8.4,0,0,1-3.671-3.671C4,49.816,4,47.464,4,42.76Z" transform="translate(0 1.8)" fill="#95e635" opacity="0.25"/>
    <path id="Path_54704" data-name="Path 54704" d="M10.8,13.6A2.8,2.8,0,1,0,8,10.8,2.8,2.8,0,0,0,10.8,13.6ZM22,8a2.8,2.8,0,0,0,0,5.6h5.6a2.8,2.8,0,0,0,0-5.6Zm0,11.2a2.8,2.8,0,0,0,0,5.6h5.6a2.8,2.8,0,0,0,0-5.6Zm-2.8,14A2.8,2.8,0,0,1,22,30.4h5.6a2.8,2.8,0,0,1,0,5.6H22A2.8,2.8,0,0,1,19.2,33.2ZM13.6,22a2.8,2.8,0,1,1-2.8-2.8A2.8,2.8,0,0,1,13.6,22ZM10.8,36A2.8,2.8,0,1,0,8,33.2,2.8,2.8,0,0,0,10.8,36Z" transform="translate(7.2 10.8)" fill="#95e635" fill-rule="evenodd"/>
    <path id="Path_54705" data-name="Path 54705" d="M9,4.8A2.8,2.8,0,0,1,11.8,2H23a2.8,2.8,0,0,1,2.8,2.8V7.6A2.8,2.8,0,0,1,23,10.4H11.8A2.8,2.8,0,0,1,9,7.6Z" transform="translate(9)" fill="#95e635"/>
  </g>
</svg>
