<svg xmlns="http://www.w3.org/2000/svg" width="65.395" height="105.673" viewBox="0 0 65.395 105.673">
  <g id="Group_415" data-name="Group 415" transform="translate(-137.677 -37)">
    <path id="Path_1" data-name="Path 1" d="M20.131,56.237A40.312,40.312,0,0,0,40.5,53.2c10.593-4.6,10.414-3.751,12.229-3.841s6.9.474,3.127,4S25.748,75.289,23.063,75.782s-10.66-.4-12.643-1.99.1-17.391,3.963-17.473,5.748-.082,5.748-.082" transform="translate(137.677 37)" fill="#006081"/>
    <path id="Path_2" data-name="Path 2" d="M59.21,0a24.5,24.5,0,0,1-2.151,4.024,32.077,32.077,0,0,1-8.911,8.753c-5.62,3.773-11.662,5.067-18.008,7C19.3,23.076,6.988,29.993,2.29,40.88-4.3,56.155,4.692,73.215,12.1,74.612c0,0-5.273-8.578.719-14.433,5.294-5.174,29.625-14.5,30.734-14.987A39.786,39.786,0,0,0,61.663,32.627S71.512,18.1,59.21,0" transform="translate(137.677 37)" fill="#15bccb"/>
    <path id="Path_3" data-name="Path 3" d="M49.872,49.6s11.811-3.459,13.454,8.037S57.659,74.8,54.621,76.274s-14.946,8.951-16.26,10.1-11.168,8.541-8.869,19.3a19.989,19.989,0,0,1-11.25-15.932,18.384,18.384,0,0,1,4.106-14.124c2.381-3.039,11.042-10.429,18.537-14.371s12.258-6.816,13.572-8.541,1.163-3.356-4.585-3.11" transform="translate(137.677 37)" fill="#15bccb"/>
  </g>
</svg>
