<svg id="logo-linkedin" xmlns="http://www.w3.org/2000/svg" width="20.535" height="20.407" viewBox="0 0 20.535 20.407">
  <path id="Path_1442" data-name="Path 1442" d="M19.514,0H.893A.872.872,0,0,0,0,.893V19.642a.853.853,0,0,0,.893.765H19.642a.872.872,0,0,0,.893-.893V.893A1.082,1.082,0,0,0,19.514,0ZM5.995,17.346H3.061V7.653H6.122v9.693ZM4.592,6.377A1.824,1.824,0,0,1,2.806,4.592,1.744,1.744,0,0,1,4.592,2.806,1.744,1.744,0,0,1,6.377,4.592,2.032,2.032,0,0,1,4.592,6.377ZM17.346,17.346H14.285V12.627c0-1.148,0-2.551-1.531-2.551s-1.786,1.275-1.786,2.551v4.847H7.908V7.653h2.934V8.928h0A3.113,3.113,0,0,1,13.647,7.4c3.061,0,3.571,2.041,3.571,4.592v5.357Z" fill="#fff"/>
</svg>
