<svg xmlns="http://www.w3.org/2000/svg" width="20.32" height="16.51" viewBox="0 0 20.32 16.51">
  <g id="logo-twitter" transform="translate(0 -1.5)">
    <path id="Path_24" data-name="Path 24" d="M20.32,3.4a7.516,7.516,0,0,1-2.413.635,3.591,3.591,0,0,0,1.778-2.286A8.332,8.332,0,0,1,17.018,2.77,4.435,4.435,0,0,0,13.97,1.5,4.2,4.2,0,0,0,9.906,5.691a1.883,1.883,0,0,0,.127.889A11.686,11.686,0,0,1,1.4,2.262,3.892,3.892,0,0,0,.889,4.421a4.168,4.168,0,0,0,1.9,3.429,5.322,5.322,0,0,1-1.9-.508h0a4.1,4.1,0,0,0,3.3,4.064,3.516,3.516,0,0,1-1.143.127,1.611,1.611,0,0,1-.762-.127,4.115,4.115,0,0,0,3.937,2.921A8.076,8.076,0,0,1,1.016,16.1H0a12.391,12.391,0,0,0,6.35,1.9A11.755,11.755,0,0,0,18.161,6.2V5.691A7.383,7.383,0,0,0,20.32,3.4Z" fill="#fff"/>
  </g>
</svg>
