<svg id="logo-instagram" xmlns="http://www.w3.org/2000/svg" width="19.377" height="19.374" viewBox="0 0 19.377 19.374">
  <path id="Path_25" data-name="Path 25" d="M9.687,1.745c2.586,0,2.893.011,3.915.057a5.351,5.351,0,0,1,1.8.334,2.993,2.993,0,0,1,1.114.727,2.993,2.993,0,0,1,.727,1.114,5.351,5.351,0,0,1,.334,1.8c.046,1.022.057,1.332.057,3.915s-.011,2.893-.057,3.915a5.351,5.351,0,0,1-.334,1.8A3.2,3.2,0,0,1,15.4,17.241a5.351,5.351,0,0,1-1.8.334c-1.022.046-1.332.057-3.915.057s-2.893-.011-3.915-.057a5.351,5.351,0,0,1-1.8-.334,2.993,2.993,0,0,1-1.114-.727A2.993,2.993,0,0,1,2.136,15.4,5.351,5.351,0,0,1,1.8,13.6c-.046-1.022-.057-1.332-.057-3.915s.011-2.893.057-3.915a5.351,5.351,0,0,1,.334-1.8A2.993,2.993,0,0,1,2.863,2.86a2.993,2.993,0,0,1,1.114-.727,5.351,5.351,0,0,1,1.8-.334C6.8,1.753,7.107,1.742,9.69,1.742M9.687,0c-2.631,0-2.961.011-4,.058a7.105,7.105,0,0,0-2.349.45A4.732,4.732,0,0,0,1.626,1.626,4.732,4.732,0,0,0,.509,3.342a7.105,7.105,0,0,0-.45,2.349C.011,6.726,0,7.056,0,9.687s.011,2.961.058,4a7.105,7.105,0,0,0,.45,2.349,4.732,4.732,0,0,0,1.118,1.716,4.732,4.732,0,0,0,1.716,1.118,7.105,7.105,0,0,0,2.352.45c1.033.047,1.362.058,3.994.058s2.961-.011,4-.058a7.105,7.105,0,0,0,2.352-.45,4.957,4.957,0,0,0,2.833-2.833,7.106,7.106,0,0,0,.45-2.352c.047-1.033.058-1.362.058-4s-.011-2.961-.058-4a7.105,7.105,0,0,0-.453-2.347,4.732,4.732,0,0,0-1.118-1.716A4.732,4.732,0,0,0,16.032.509a7.105,7.105,0,0,0-2.349-.45C12.648.011,12.318,0,9.687,0Z" fill="#fff"/>
  <path id="Path_26" data-name="Path 26" d="M8.866,3.892a4.974,4.974,0,1,0,4.974,4.974A4.974,4.974,0,0,0,8.866,3.892Zm0,8.2A3.229,3.229,0,1,1,12.1,8.866,3.229,3.229,0,0,1,8.866,12.1Z" transform="translate(0.821 0.821)" fill="#fff"/>
  <circle id="Ellipse_4" data-name="Ellipse 4" cx="1.162" cy="1.162" r="1.162" transform="translate(13.695 3.354)" fill="#fff"/>
</svg>
