<svg xmlns="http://www.w3.org/2000/svg" width="1766.203" height="1778.23" viewBox="0 0 1766.203 1778.23">
  <path id="Path_1445" data-name="Path 1445" d="M1069.433,1335.165c-6.017-19.425-34.766-64.706-39.611-71.869-42.366-62.529-98.885-115.472-161.256-157.849-101.074-68.68-208.745-93.712-322.039-130.108C352.912,913.122,132.059,786.492,44.789,592.453-77.626,320.208,75.8,22.021,206.792,0c0,0-90.481,149.663,17.941,255.261C320.525,348.577,755.591,522,775.445,531.09c19.837,9.108,193.534,62.657,325.795,228.5,0,0,179.973,260.2-31.807,575.574" transform="translate(1765.379 992.764) rotate(138)" fill="none" stroke="#15bccb" stroke-width="1" stroke-dasharray="130 0"/>
</svg>
