<svg xmlns="http://www.w3.org/2000/svg" width="2215.973" height="2231.067" viewBox="0 0 2215.973 2231.067">
  <path id="Path_1446" data-name="Path 1446" d="M1341.982,1675.437c-7.551-24.375-43.626-81.2-49.707-90.185-53.163-78.465-124.087-144.9-202.353-198.077-126.833-86.183-261.944-117.6-404.111-163.267C442.853,1145.835,165.714,986.933,56.2,743.442-97.41,401.814,95.113,27.633,259.493,0c0,0-113.54,187.8,22.514,320.315C402.212,437.413,948.156,655.032,973.07,666.44c24.892,11.43,242.857,78.625,408.825,286.736,0,0,225.84,326.514-39.913,722.26" transform="translate(2215.149 1245.635) rotate(138)" fill="none" stroke="#ffe05f" stroke-width="1"/>
</svg>
