<svg xmlns="http://www.w3.org/2000/svg" width="31.965" height="32" viewBox="0 0 31.965 32">
  <g id="creativity_1" data-name="creativity 1" transform="translate(-0.006 0)">
    <g id="Page_1" data-name="Page 1">
      <g id="_035_Creative_Thinking" data-name="035   Creative Thinking">
        <path id="Shape" d="M27.6,23.467a7.167,7.167,0,0,0-.013-2.72l2.443-5.895a.091.091,0,0,0,0-.012,10.016,10.016,0,0,1,1.715-2.977.8.8,0,0,0,.2-.728l-1-4.325a.522.522,0,0,0-.053-.129c0-.008-.006-.018-.01-.025s-.023-.026-.034-.039a.538.538,0,0,0-.075-.088.5.5,0,0,0-.058-.035.542.542,0,0,0-.083-.05.527.527,0,0,0-.125-.03c-.012,0-.023-.008-.035-.009a.533.533,0,0,0-.294.066c-.008,0-.018.006-.026.011h-.005L26.379,8.83A.8.8,0,0,0,26,9.486a10.011,10.011,0,0,1-.9,3.324v.006l-1.221,2.951a7.154,7.154,0,0,0-1.905-.688,28.818,28.818,0,0,0,.276-5.244A5.821,5.821,0,0,0,23.58,5.562C23.247,2.454,20.438.209,20.318.114a.533.533,0,0,0-.845.556c.275,1.031.037,2.12-1.992,4.358a3.121,3.121,0,0,0-.731,3.4,4.14,4.14,0,0,0,.759,1.227c-.129.824-.23,1.6-.3,2.364a26.71,26.71,0,0,0-.093,3.782,7.256,7.256,0,0,0-1.328.925L13.2,5.667c0-.011-.011-.019-.014-.029a.506.506,0,0,0-.037-.1L10.508.656A1.231,1.231,0,0,0,8.194,1.2l-.2,5.544a.553.553,0,0,0,.013.119v.024l2.639,11.262a6,6,0,0,0-1.233.184L6.51,11.32a1.078,1.078,0,0,0-1.392-.57L.681,12.587A1.07,1.07,0,0,0,.1,13.98l3.937,9.5A4.264,4.264,0,0,0,4.26,32H27.727a4.267,4.267,0,1,0-.124-8.533Zm-.543-13.8,2.236-1.4L28.5,10.178a.533.533,0,1,0,.986.409l.791-1.911.593,2.567A10.549,10.549,0,0,0,29.327,13.8a2.194,2.194,0,0,1-2.981-1.233A10.535,10.535,0,0,0,27.06,9.662Zm-1.227,4.187a3.249,3.249,0,0,0,1.33.968,3.384,3.384,0,0,0,1.305.275,2.827,2.827,0,0,0,.323-.02l-1.7,4.107a7.238,7.238,0,0,0-2.29-2.831ZM18.526,10.04l2.679.164c.017.5.011,1.013-.006,1.537a11.211,11.211,0,0,1-2.672-.129l-.2-.026c.053-.5.118-1.011.2-1.545Zm-.254-4.295a8.015,8.015,0,0,0,2.321-3.893,7.133,7.133,0,0,1,1.925,3.823,4.779,4.779,0,0,1-1.079,3.473l-3.126-.192a2.225,2.225,0,0,1-.041-3.211Zm-.041,6.9.155.02a15.2,15.2,0,0,0,2.076.177c.221,0,.453-.018.686-.036-.049.686-.128,1.4-.229,2.144-.132-.007-.261-.02-.393-.02a7.143,7.143,0,0,0-2.364.407,25.741,25.741,0,0,1,.067-2.692Zm-4.125,6.237-1.526-6.5a.533.533,0,0,0-1.038.243l1.371,5.85a6.041,6.041,0,0,0-1.163-.29L9.41,8.2a2.527,2.527,0,0,0,1.044.227c.034,0,.069,0,.1-.006l.377,1.61a.533.533,0,1,0,1.038-.243L11.6,8.176a2.526,2.526,0,0,0,.932-.709l2.38,10.175A7.155,7.155,0,0,0,14.106,18.885ZM10.847,7.312A1.771,1.771,0,0,1,9.067,6.6L9.134,4.72a3.139,3.139,0,0,0,.563.053,2.377,2.377,0,0,0,.542-.06,2.717,2.717,0,0,0,.989-.492l.9,1.658a1.769,1.769,0,0,1-1.278,1.434ZM9.387,1.081a.166.166,0,0,1,.183.082l1.143,2.115a1.82,1.82,0,0,1-.72.4,1.813,1.813,0,0,1-.822-.039l.087-2.4A.165.165,0,0,1,9.387,1.081ZM5.527,11.734l.407.985-1.973.817a.533.533,0,0,0,.205,1.025.541.541,0,0,0,.2-.041L6.344,13.7l.408.986-.987.409a.533.533,0,0,0,.2,1.026.542.542,0,0,0,.2-.041l.987-.409.408.986-1.975.819A.533.533,0,0,0,5.8,18.5a.54.54,0,0,0,.2-.041l1.973-.817.431,1.042a6.191,6.191,0,0,0-3.453,4.2L1.088,13.57Zm22.2,19.2H4.26a3.2,3.2,0,1,1,0-6.4,3.142,3.142,0,0,1,.913.132.533.533,0,0,0,.687-.5,5.067,5.067,0,0,1,8.107-3.951.533.533,0,0,0,.818-.24,6.135,6.135,0,0,1,11.606,3.959.533.533,0,0,0,.624.678,3.331,3.331,0,0,1,.712-.078,3.2,3.2,0,1,1,0,6.4Z" transform="translate(0.006 0)" fill="#ffaa2c"/>
        <path id="Shape-2" data-name="Shape" d="M.53,3.759a.533.533,0,0,0,.427-.211A4,4,0,0,0,1.666.408.533.533,0,1,0,.636.683,2.963,2.963,0,0,1,.107,2.9a.533.533,0,0,0,.427.853Z" transform="translate(20.102 4.614)" fill="#ffaa2c"/>
        <path id="Shape-3" data-name="Shape" d="M6.928,1.045a2.622,2.622,0,0,0-1.144.267A3.2,3.2,0,0,0,.256,4.453a.533.533,0,0,0,.491.324.527.527,0,0,0,.209-.043.533.533,0,0,0,.282-.7,2.173,2.173,0,0,1-.176-.857A2.133,2.133,0,0,1,3.195,1.045,2.112,2.112,0,0,1,5.123,2.272a.582.582,0,0,0,.037.05.542.542,0,0,0,.028.053c.01.012.023.017.034.028a.509.509,0,0,0,.083.069.517.517,0,0,0,.085.053.528.528,0,0,0,.1.03.49.49,0,0,0,.1.015.657.657,0,0,0,.2-.034l.042-.01a.48.48,0,0,0,.05-.037.555.555,0,0,0,.056-.029,1.573,1.573,0,0,1,.99-.35,1.6,1.6,0,0,1,1.451.931A.533.533,0,1,0,9.349,2.6,2.667,2.667,0,0,0,6.928,1.045Z" transform="translate(13.002 23.488)" fill="#ffaa2c"/>
        <path id="Shape-4" data-name="Shape" d="M1.965.03A2.894,2.894,0,0,0,0,2.67a.533.533,0,1,0,1.067,0A1.834,1.834,0,0,1,2.305,1.041.534.534,0,0,0,1.965.028Z" transform="translate(7.466 20.797)" fill="#ffaa2c"/>
        <path id="Shape-5" data-name="Shape" d="M.4,3.184a.521.521,0,0,0,.13.016.533.533,0,0,0,.517-.4A2.275,2.275,0,0,1,3.2,1.067.533.533,0,0,0,3.2,0,3.322,3.322,0,0,0,.016,2.537.533.533,0,0,0,.4,3.184Z" transform="translate(16.533 17.067)" fill="#ffaa2c"/>
      </g>
    </g>
  </g>
</svg>
