<svg xmlns="http://www.w3.org/2000/svg" width="57.999" height="57.999" viewBox="0 0 57.999 57.999">
  <g id="Petri_Dish" data-name="Petri Dish" transform="translate(-2 -2)">
    <path id="Path_54699" data-name="Path 54699" d="M60,31A29,29,0,1,1,31,2,29,29,0,0,1,60,31Z" fill="#ff990d" opacity="0.25"/>
    <path id="Path_54700" data-name="Path 54700" d="M30.049,7.85a2.9,2.9,0,1,1,4.1,4.1l-8.7,8.7a2.9,2.9,0,1,1-4.1-4.1l8.7-8.7Zm-23.2,8.7a2.9,2.9,0,0,1,4.1,0l2.9,2.9a2.9,2.9,0,1,1-4.1,4.1l-2.9-2.9a2.9,2.9,0,0,1,0-4.1ZM17.6,12.8a2.9,2.9,0,1,0-2.9-2.9A2.9,2.9,0,0,0,17.6,12.8Zm0,20.3a2.9,2.9,0,1,1-2.9-2.9A2.9,2.9,0,0,1,17.6,33.1ZM40.8,20.05a2.9,2.9,0,0,0-5.8,0V21.5a2.9,2.9,0,0,1-2.9,2.9,8.7,8.7,0,0,0-8.7,8.7v1.45a2.9,2.9,0,1,0,5.8,0V33.1a2.9,2.9,0,0,1,2.9-2.9,8.7,8.7,0,0,0,8.7-8.7Z" transform="translate(7.6 9.5)" fill="#ff990d" fill-rule="evenodd"/>
  </g>
</svg>
