<svg xmlns="http://www.w3.org/2000/svg" width="62" height="62" viewBox="0 0 62 62">
  <g id="Settings" transform="translate(-2 -2)">
    <path id="Path_54697" data-name="Path 54697" d="M26.8,6.65A4.65,4.65,0,0,1,31.45,2h3.1A4.65,4.65,0,0,1,39.2,6.65V7.778A1.619,1.619,0,0,0,40.356,9.31a24.645,24.645,0,0,1,4.194,1.736,1.618,1.618,0,0,0,1.9-.263l.8-.8a4.65,4.65,0,0,1,6.578,0l2.192,2.192a4.65,4.65,0,0,1,0,6.578l-.8.8a1.618,1.618,0,0,0-.263,1.9,24.541,24.541,0,0,1,1.739,4.194A1.618,1.618,0,0,0,58.222,26.8H59.35A4.65,4.65,0,0,1,64,31.45v3.1a4.65,4.65,0,0,1-4.65,4.65H58.222a1.618,1.618,0,0,0-1.531,1.156,24.655,24.655,0,0,1-1.736,4.194,1.618,1.618,0,0,0,.26,1.9l.8.8a4.65,4.65,0,0,1,0,6.578l-2.192,2.192a4.65,4.65,0,0,1-6.578,0l-.8-.8a1.618,1.618,0,0,0-1.9-.263,24.407,24.407,0,0,1-4.191,1.739A1.618,1.618,0,0,0,39.2,58.222V59.35A4.65,4.65,0,0,1,34.55,64h-3.1a4.65,4.65,0,0,1-4.65-4.65V58.222a1.618,1.618,0,0,0-1.156-1.531,24.629,24.629,0,0,1-4.194-1.736,1.618,1.618,0,0,0-1.9.26l-.8.8a4.65,4.65,0,0,1-6.578,0L9.983,53.826a4.65,4.65,0,0,1,0-6.578l.8-.8a1.618,1.618,0,0,0,.267-1.9A24.645,24.645,0,0,1,9.31,40.356,1.618,1.618,0,0,0,7.778,39.2H6.65A4.65,4.65,0,0,1,2,34.55v-3.1A4.65,4.65,0,0,1,6.65,26.8H7.778A1.618,1.618,0,0,0,9.31,25.644a24.645,24.645,0,0,1,1.736-4.194,1.618,1.618,0,0,0-.263-1.9l-.8-.8a4.65,4.65,0,0,1,0-6.578l2.192-2.192a4.65,4.65,0,0,1,6.578,0l.8.8a1.613,1.613,0,0,0,1.9.267A24.645,24.645,0,0,1,25.644,9.31,1.618,1.618,0,0,0,26.8,7.778Z" fill="#15bccb" fill-rule="evenodd" opacity="0.25"/>
    <path id="Path_54698" data-name="Path 54698" d="M27.6,18.3A9.3,9.3,0,1,1,18.3,9a9.3,9.3,0,0,1,9.3,9.3Z" transform="translate(14.7 14.7)" fill="#15bccb"/>
  </g>
</svg>
