<svg xmlns="http://www.w3.org/2000/svg" width="57.5" height="46" viewBox="0 0 57.5 46">
  <g id="Standings" transform="translate(-2 -4)">
    <path id="Path_54701" data-name="Path 54701" d="M7.875,6a2.875,2.875,0,0,0,0,5.75h11.5a2.875,2.875,0,0,1,2.875,2.875v17.25a2.875,2.875,0,0,1-2.875,2.875H7.875a2.875,2.875,0,0,0,0,5.75h11.5A8.625,8.625,0,0,0,28,31.875v-5.75H39.5a2.875,2.875,0,0,0,0-5.75H28v-5.75A8.625,8.625,0,0,0,19.375,6Z" transform="translate(5.625 3.75)" fill="#4a44c6" fill-rule="evenodd" opacity="0.25"/>
    <path id="Path_54702" data-name="Path 54702" d="M19.25,12.625A8.625,8.625,0,1,1,10.625,4a8.625,8.625,0,0,1,8.625,8.625ZM59.5,27a8.625,8.625,0,1,1-8.625-8.625A8.625,8.625,0,0,1,59.5,27ZM10.625,50A8.625,8.625,0,1,0,2,41.375,8.625,8.625,0,0,0,10.625,50Z" transform="translate(0 0)" fill="#4a44c6" fill-rule="evenodd"/>
  </g>
</svg>
